<?xml version="1.0" standalone="no"?>
<!DOCTYPE svg PUBLIC "-//W3C//DTD SVG 1.1//EN" "http://www.w3.org/Graphics/SVG/1.1/DTD/svg11.dtd" >
<svg xmlns="http://www.w3.org/2000/svg">
<metadata>Generated by IcoMoon</metadata>
<defs>
<font id="enmit" horiz-adv-x="1024">
<font-face units-per-em="1024" ascent="960" descent="-64" />
<missing-glyph horiz-adv-x="1024" />
<glyph unicode="&#x20;" d="" horiz-adv-x="512" />
<glyph unicode="&#x21;" d="M1002 426c12 0 22 10 22 22s-10 22-22 22h-234v192h234c12 0 22 8 22 20s-10 22-22 22h-234v234c0 12-10 22-22 22s-20-10-20-22v-234h-192v234c0 12-10 22-22 22s-22-10-22-22v-234h-192v234c0 12-8 22-20 22s-22-10-22-22v-234h-234c-12 0-22-10-22-22s10-20 22-20h234v-192h-234c-12 0-22-10-22-22s10-22 22-22h234v-192h-234c-12 0-22-8-22-20s10-22 22-22h234v-234c0-12 10-22 22-22s20 10 20 22v234h192v-234c0-12 10-22 22-22s22 10 22 22v234h192v-234c0-12 8-22 20-22s22 10 22 22v234h234c12 0 22 10 22 22s-10 20-22 20h-234v192zM726 662v-192h-192v192zM298 662h192v-192h-192zM298 234v192h192v-192zM726 234h-192v192h192z" />
<glyph unicode="&#x22;" d="M774 726l-226 228c-4 4-8 6-14 6 0 0 0 0 0 0-6 0-12-2-16-6l-228-228h-290v-790h1024v790zM534 908l180-182h-364zM982-22h-940v704h940zM938 640h-852v-618h852zM128 598h768v-256h-106c-12 0-22-10-22-22v-106h-64c-12 0-22-10-22-22v-128h-74c-34 44-202 266-202 470 0 12-10 20-22 20s-22-8-22-20c0-202-168-426-202-470h-32zM768 64h-42v106h42zM286 170h196c28-44 54-82 72-106h-340c18 24 44 62 72 106zM310 214c28 52 56 114 74 178 18-64 46-126 74-178zM810 64v234h86v-234z" />
<glyph unicode="&#x23;" d="M512 960c-118 0-214-96-214-214v-532c0-12 10-22 22-22h170v-234c0-12 10-22 22-22s22 10 22 22v234h170c12 0 22 10 22 22v532c0 118-96 214-214 214zM682 234h-340v512c0 94 76 172 170 172s170-78 170-172zM598 490v172c0 34-30 64-64 64-36 0-64-30-64-64 0-12-10-22-22-22s-22 10-22 22v84c0 12-8 22-20 22s-22-10-22-22v-84c0-36 28-64 64-64s64 28 64 64c0 12 10 20 22 20s20-8 20-20v-172c0-34 30-64 64-64 12 0 22 10 22 22s-10 22-22 22c-12 0-20 8-20 20z" />
<glyph unicode="&#x24;" d="M904 936c-8 4-16 2-24-4-46-48-110-74-176-74-76 0-148 34-196 94-8 10-26 10-34 0-48-60-120-94-196-94-68 0-130 26-178 74-6 6-14 8-22 4s-14-10-14-20v-632c0 0 0-2 0-4 2-10 48-238 420-344 2 0 4 0 6 0s4 0 6 0c374 106 420 334 420 344 2 2 2 4 2 4v632c0 10-6 16-14 20zM874 286c-2-8-14-58-62-116s-144-140-322-190c-176 50-272 132-320 190s-62 108-64 116v584c50-36 110-54 172-54 80 0 158 32 212 90 56-58 132-90 214-90 62 0 122 18 170 54zM576 726h-170v-172h-172v-170h172v-170h170v170h170v170h-170zM704 512v-86h-170v-170h-86v170h-170v86h170v170h86v-170z" />
<glyph unicode="&#x25;" d="M234 790c-34 0-64-30-64-64v-492h-106c-12 0-22-8-22-20s10-22 22-22h106v-170h-148c-12 0-22-10-22-22s10-22 22-22h256c12 0 20 10 20 22v726c0 34-28 64-64 64zM214 22v704c0 12 8 20 20 20s22-8 22-20v-704zM1016 316l-78 58v224c0 58-48 106-106 106h-86c-222 0-404-182-404-406v-64c0 0 0 0 0 0v-170c0-12 8-22 20-22h92c26-38 72-64 122-64s96 26 122 64h80c16-36 54-64 96-64 44 0 82 28 98 64h30c12 0 22 10 22 22v234c0 8-4 14-8 18zM384 86v140l170 170 6-6c6-4 10-6 16-6s10 2 16 6c8 8 8 22 0 30l-44 44c-8 8-22 8-30 0-8-10-8-22 0-32l6-6-140-140v12c0 200 162 364 362 364h86c36 0 64-30 64-64v-214h-100l36 144c2 12-4 24-16 26s-24-4-26-16l-38-154h-70c-6 0-10-2-14-6l-102-102c-78-4-140-68-140-148 0-14 2-30 6-42zM576 22c-58 0-106 48-106 106s48 106 106 106c58 0 106-48 106-106s-48-106-106-106zM874 22c-34 0-64 28-64 64 0 34 30 64 64 64 36 0 64-30 64-64 0-36-28-64-64-64zM982 86c0 58-48 106-108 106-58 0-106-48-106-106h-48c4 12 6 28 6 42 0 66-44 124-106 142l72 72h218l72-54z" />
<glyph unicode="&#x26;" d="M746 618h-64v150c0 106-76 192-170 192s-170-86-170-192v-150h-64c-12 0-22-8-22-20s10-22 22-22h64v-362c0-80 42-150 106-178v-78c0-12 10-22 22-22h84c12 0 22 10 22 22v78c64 28 106 98 106 178v362h64c12 0 22 10 22 22s-10 20-22 20zM384 768c0 82 58 150 128 150s128-68 128-150v-150h-256zM640 214c0-66-38-126-92-144-8-2-14-12-14-20v-72h-44v72c0 8-6 18-14 20-54 18-92 78-92 144v64h64c12 0 22 8 22 20s-10 22-22 22h-64v42h64c12 0 22 10 22 22s-10 22-22 22h-64v42h64c12 0 22 10 22 22s-10 20-22 20h-64v86h256z" />
<glyph unicode="&#x27;" d="M896-42c0 0 0 0 0 2v1000h-810v-1024h788c0 0 0 0 2 0h20v20c0 0 0 0 0 2zM830 918l-102-126c-12-16-30-24-50-24h-376c-18 0-38 8-50 24l-100 126zM128 878l92-114c20-24 50-38 82-38h168v-598h-256c-8 0-14-4-18-8l-68-96zM148-22l76 108h534l76-108zM786 120c-4 4-12 8-18 8h-256v598h166c34 0 64 14 84 38l92 114v-854z" />
<glyph unicode="&#x28;" d="M938 790h-852c-48 0-86-38-86-86v-512c0-48 38-86 86-86h852c48 0 86 38 86 86v512c0 48-38 86-86 86zM982 192c0-24-20-42-44-42h-852c-24 0-44 18-44 42v512c0 24 20 42 44 42h852c24 0 44-18 44-42zM892 608c-6 10-20 14-28 8l-352-228-352 228c-8 6-22 2-28-8-6-8-4-22 6-28l374-242 374 242c10 6 12 20 6 28zM308 402l-192-128c-10-6-12-20-6-30 4-6 12-10 18-10 4 0 8 2 12 4l192 128c10 6 12 20 6 30s-20 12-30 6zM716 402c-10 6-24 4-30-6s-4-24 6-30l192-128c4-2 8-4 12-4 6 0 14 4 18 10 6 10 4 24-6 30z" />
<glyph unicode="&#x29;" d="M768 470c-12 0-22-10-22-22v-470h-704v854h576c12 0 22 10 22 22s-10 20-22 20h-618v-938h790v512c0 12-10 22-22 22zM1020 918c-12 26-36 42-62 42-16 0-32-6-44-20l-60-60c0 0 0 0 0 0s0 0 0 0l-348-346c0-2-2-4-4-6l-60-120c-4-10-2-20 4-26 4-4 10-6 16-6 2 0 6 0 10 2l120 60c2 2 4 4 6 4l406 408c20 20 26 44 16 68zM570 476l-60-30 30 60 328 330 32-32zM974 880l-44-44-30 30 44 44c4 6 10 8 14 8 10 0 18-8 22-16s2-14-6-22z" />
<glyph unicode="&#x2a;" d="M316 252c-4 4-6 10-6 16 0 4 2 10 6 14 8 8 22 8 30 0 24-24 66-24 90 0 12 12 20 28 20 46 0 16-8 32-20 44-8 8-8 22 0 30s22 8 30 0c12-12 28-18 46-18 0 0 0 0 0 0 18 0 34 6 46 18s18 28 18 46c0 18-6 34-18 46-4 4-6 8-6 14s2 12 6 16c4 4 8 6 14 6 0 0 0 0 0 0 6 0 12-2 16-6 24-26 66-26 90 0 24 24 24 64 0 90-4 4-6 10-6 16 0 4 2 10 6 14 8 8 22 8 30 0 24-24 66-24 90 0 12 12 20 28 20 46 0 16-8 32-20 44-8 8-8 22 0 30 8 10 22 10 30 0 10-8 22-8 30 0 10 10 10 22 2 30-26 26-66 26-92 0-24-24-24-64 0-90 4-4 6-8 6-14s-2-12-6-16c-8-8-22-8-30 0-24 24-66 24-90 0-12-12-18-28-18-44 0-18 6-34 18-46 8-8 8-22 0-30s-22-8-30 0c-12 12-28 18-46 18 0 0 0 0 0 0-16 0-32-6-44-18-14-12-20-28-20-46 0-16 6-32 20-44 4-4 6-10 6-16s-2-12-6-16c-4-4-10-6-16-6s-12 2-16 6c-24 26-66 26-90 0-24-24-24-64 0-90 8-8 8-22 0-30s-22-8-30 0c-24 24-66 24-90 0-12-12-20-28-20-46 0-16 8-32 20-44 8-8 8-22 0-30s-22-8-30 0c-26 24-66 24-90 0-26-26-26-66 0-90 4-6 8-8 14-8s12 2 16 8c8 8 8 20 0 30-10 8-10 22 0 30 8 8 22 8 30 0 24-26 64-26 90 0 24 24 24 64 0 90zM960 722c8 48-4 98-40 134-28 28-66 44-106 44-10 0-18-2-26-4-96 80-200 82-276 4l-452-452c-64-62-88-174 4-274-8-48 4-98 40-134 28-28 66-44 106-44 10 0 18 2 28 4 40-40 88-60 140-60 0 0 0 0 0 0 50 0 98 20 134 56l452 452c64 64 88 174-4 274zM90 418l452 452c56 56 126 58 198 10-12-8-22-16-32-24l-604-604c-10-10-18-20-24-32-54 74-38 152 10 198zM134 70c-40 42-40 110 0 152l604 604c20 20 48 30 76 30s54-10 76-30c40-42 40-110 0-152l-604-604c-20-20-48-30-76-30s-54 10-76 30zM934 478l-452-452c-28-28-66-44-104-44-34 0-66 12-94 34 12 6 22 14 32 24l604 604c10 10 18 20 24 32 58-80 34-154-10-198z" />
<glyph unicode="&#x2b;" d="M662 960c-12 0-22-10-22-22 0 0 0 0 0 0v-980c0-12 10-22 22-22s20 10 20 22v340h108c12 0 20 10 20 22 0 310-60 640-148 640zM682 342v548c36-66 84-260 86-548zM490 960c-12 0-20-10-20-22v-212c0-52-38-96-86-106v318c0 12-10 22-22 22s-20-10-20-22v-318c-50 10-86 54-86 106v212c0 12-10 22-22 22s-20-10-20-22v-212c0-76 56-138 128-148v-620c0-12 8-22 20-22s22 10 22 22v620c72 10 128 72 128 148v212c0 12-10 22-22 22z" />
<glyph unicode="&#x2c;" d="M470 214c200 0 362 162 362 362s-162 362-362 362c-200 0-364-162-364-362s164-362 364-362zM470 896c176 0 320-144 320-320s-144-320-320-320c-176 0-320 144-320 320s144 320 320 320zM802 244c178 178 182 464 14 648l16 16c8 8 8 22 0 30s-22 8-30 0l-62-60c-8-8-8-22 0-30 6-4 10-6 16-6s12 2 16 6l14 14c150-168 146-426-14-588-162-160-422-166-588-14l14 14c8 8 8 22 0 30s-22 8-30 0l-60-60c-8-8-8-22 0-30 4-4 10-6 14-6 6 0 12 2 16 6l16 16c78-72 174-112 272-122v-46c-80-8-158-38-224-88l-52-38h638l-50 38c-68 50-144 80-226 88v46c106 10 208 56 290 136zM290-22c54 28 116 44 180 44 62 0 124-16 180-44z" />
<glyph unicode="&#x2d;" d="M42 598v20h512v278c0 36-26 64-60 64h-434c-32 0-60-28-60-64v-298c0-36 28-64 60-64h196v42h-196c-10 0-18 10-18 22zM42 896c0 12 8 22 18 22h434c10 0 18-10 18-22v-234h-470zM106 490c-12 0-20-8-20-20s8-22 20-22h150v42zM934 576h-546c-50 0-90-44-90-98v-358c0-54 40-98 90-98h252v-44h-170c-12 0-22-8-22-20s10-22 22-22h376c12 0 22 10 22 22s-10 20-22 20h-164v44h252c50 0 90 44 90 98v358c0 54-40 98-90 98zM388 534h546c26 0 48-26 48-56v-286h-640v286c0 30 20 56 46 56zM934 64h-546c-26 0-46 24-46 56v30h640v-30c0-32-22-56-48-56zM682 106c0-12-8-20-20-20s-22 8-22 20c0 12 10 22 22 22s20-10 20-22z" />
<glyph unicode="&#x2e;" d="M1018 880c-36 34-136 38-164 38-30 0-130-4-166-38-4-4-6-10-6-16v-874c0-6 2-12 6-16 36-36 136-38 166-38 28 0 128 2 164 38 4 4 6 10 6 16v874c0 6-2 12-6 16zM982 0c-20-12-66-22-128-22-64 0-110 10-128 22v854c18 10 64 20 128 20 62 0 108-10 128-20zM636 184l-92 122c-26 36-68 56-114 56h-220c-46 0-88-20-114-56l-92-122c-2-4-4-8-4-14v-128c0-58 48-106 106-106h428c58 0 106 48 106 106v128c0 6-2 10-4 14zM130 280c20 26 48 40 80 40h220c32 0 62-14 80-40l86-116c-2-32-30-58-62-58h-428c-32 0-60 26-62 58zM598 42c0-34-30-64-64-64h-428c-34 0-64 30-64 64v44c18-14 40-22 64-22h428c24 0 46 8 64 22zM746 694c0-60 48-108 108-108 58 0 106 48 106 108 0 58-48 106-106 106-60 0-108-48-108-106zM918 694c0-36-30-64-64-64-36 0-64 28-64 64 0 34 28 64 64 64 34 0 64-30 64-64zM832 522c0-22-20-42-42-42-24 0-44 20-44 42 0 24 20 44 44 44 22 0 42-20 42-44zM960 522c0-22-20-42-42-42-24 0-44 20-44 42 0 24 20 44 44 44 22 0 42-20 42-44z" />
<glyph unicode="&#x2f;" d="M620 192c-8 0-14-4-20-10l-24-36-46 78c-8 14-28 14-36 0l-46-78-24 36c-6 6-12 10-20 10-6 0-14-4-18-10-10-20-66-122-66-160 0-48 38-86 86-86h212c48 0 86 38 86 86 0 38-56 140-66 160-4 6-12 10-18 10zM618-22h-212c-24 0-44 20-44 44 0 14 22 62 46 108l22-36c4-6 12-8 18-8 8 0 14 4 18 10l46 76 46-76c4-6 10-10 18-10 6 0 14 2 18 8l22 36c24-46 46-94 46-108 0-24-20-44-44-44zM918 760h-64v72h20c12 0 22 10 22 22s-10 20-22 20h-258c-10 50-52 86-104 86s-94-36-104-86h-258c-12 0-22-8-22-20s10-22 22-22h20v-86h-64c-12 0-20-8-20-20s8-22 20-22h64v-320c0-58 48-106 108-106h468c60 0 108 48 108 106v334h64c12 0 20 10 20 22s-8 20-20 20zM512 918c28 0 52-18 60-44h-120c8 26 32 44 60 44zM810 384c0-36-28-64-64-64h-468c-36 0-64 28-64 64v448h596z" />
<glyph unicode="&#x30;" d="M438 190v24h42v128h-256v-128h44v-24c-136-24-208-102-218-232l-2-22h604l-2 22c-10 132-80 208-212 232zM96-22c14 102 78 156 196 172l18 2v104h-42v42h170v-42h-42v-104l18-2c116-16 176-68 192-172zM962 940c-10 8-22 8-30 0l-100-100v94c0 8-4 14-10 18-4 4-12 6-18 2-68-22-140-70-204-136-126-124-180-270-134-344l-54-54c-8-8-8-22 0-30 4-4 10-6 14-6 6 0 12 2 16 6l54 54c16-10 38-16 60-16 64 0 150 38 236 110 6 6 8 16 6 24-4 8-12 14-20 14h-150l42 42h192c12 0 22 10 22 22s-10 22-22 22h-148l42 42h170c8 0 16 4 20 10 56 98 60 180 16 226zM630 788c50 50 106 92 158 116v-106l-56-56c0-2 0-2-2-2l-82-84c-2 0-2-2-2-2l-84-84c0 0-2 0-2-2l-62-62c-22 56 22 172 132 282zM714 534c-76-52-146-74-186-58l58 58zM914 746h-116l144 144c14-32 4-82-28-144z" />
<glyph unicode="&#x31;" d="M832 960h-640c-58 0-106-48-106-106v-812c0-58 48-106 106-106h640c58 0 106 48 106 106v812c0 58-48 106-106 106zM896 42c0-34-28-64-64-64h-640c-36 0-64 30-64 64v812c0 34 28 64 64 64h640c36 0 64-30 64-64zM558 42c0-22-18-42-42-42s-44 20-44 42c0 24 20 44 44 44s42-20 42-44zM832 832h-640c-12 0-22-10-22-22v-682c0-12 10-22 22-22h640c12 0 22 10 22 22v682c0 12-10 22-22 22zM810 150h-596v640h596zM536 874c0-12-8-20-20-20s-22 8-22 20c0 12 10 22 22 22s20-10 20-22z" />
<glyph unicode="&#x32;" d="M746 960h-468c-60 0-108-48-108-106v-812c0-58 48-106 108-106h468c60 0 108 48 108 106v812c0 58-48 106-108 106zM214 746h596v-596h-596zM278 918h468c36 0 64-30 64-64v-64h-596v64c0 34 28 64 64 64zM746-22h-468c-36 0-64 30-64 64v64h596v-64c0-34-28-64-64-64zM554 42c0-22-18-42-42-42s-42 20-42 42c0 24 18 44 42 44s42-20 42-44zM406 832h212c12 0 22 10 22 22s-10 20-22 20h-212c-12 0-22-8-22-20s10-22 22-22z" />
<glyph unicode="&#x33;" d="M342 448c-118 0-214-96-214-214 0-116 96-212 214-212 116 0 212 96 212 212 0 118-96 214-212 214zM342 64c-94 0-172 76-172 170s78 172 172 172c94 0 170-78 170-172s-76-170-170-170zM342 362c-72 0-128-56-128-128 0-70 56-128 128-128 70 0 128 58 128 128 0 72-58 128-128 128zM342 150c-48 0-86 38-86 84 0 48 38 86 86 86 46 0 84-38 84-86 0-46-38-84-84-84zM832 874h-342v44h-150c-18 26-50 42-84 42-58 0-106-48-106-106 0-60 48-108 106-108 34 0 66 18 84 44h150v42h342c58 0 106-48 106-106v-662c0-48-38-86-84-86-48 0-86 38-86 86v342c0 46-38 84-86 84h-42v64c0 36-28 64-64 64h-470c-34 0-64-28-64-64v-512c0-58 48-106 108-106h384c58 0 106 48 106 106v406h42c24 0 44-20 44-42v-342c0-70 56-128 128-128 70 0 128 58 128 128v662c0 82-68 148-150 148zM256 790c-36 0-64 28-64 64 0 34 28 64 64 64s64-30 64-64c0-36-28-64-64-64zM448 832h-86v42h86zM106 576h470c12 0 22-10 22-22s-10-20-22-20h-470c-12 0-20 8-20 20s8 22 20 22zM534-22h-384c-36 0-64 30-64 64v452c6-2 14-4 20-4h470c8 0 14 2 22 4v-452c0-34-30-64-64-64zM278 854c0-12-10-22-22-22s-22 10-22 22c0 12 10 20 22 20s22-8 22-20z" />
<glyph unicode="&#x34;" d="M746 960h-468c-60 0-108-48-108-106v-812c0-58 48-106 108-106h468c60 0 108 48 108 106v812c0 58-48 106-108 106zM810 42c0-34-28-64-64-64h-468c-36 0-64 30-64 64v812c0 34 28 64 64 64h468c36 0 64-30 64-64zM746 874h-468c-12 0-22-8-22-20v-342c0-12 10-22 22-22h468c12 0 22 10 22 22v342c0 12-10 20-22 20zM726 534h-428v298h428zM512 448c-118 0-214-96-214-214 0-116 96-212 214-212s214 96 214 212c0 118-96 214-214 214zM512 64c-94 0-170 76-170 170s76 172 170 172c94 0 170-78 170-172s-76-170-170-170zM512 362c-70 0-128-56-128-128 0-70 58-128 128-128s128 58 128 128c0 72-58 128-128 128zM512 150c-48 0-86 38-86 84 0 48 38 86 86 86s86-38 86-86c0-46-38-84-86-84z" />
<glyph unicode="&#x35;" d="M960 618c-28 0-52-18-60-42h-4c-48 0-86-38-86-86 0-46 38-84 86-84h4c6-18 20-32 38-40v-302c0-48-38-86-84-86-48 0-86 38-86 86v704c0 48-38 86-86 86 0 58-48 106-106 106h-470c-58 0-106-48-106-106v-812c0-58 48-106 106-106h470c58 0 106 48 106 106v768c24 0 44-18 44-42v-704c0-70 56-128 128-128 70 0 128 58 128 128v302c24 10 42 32 42 60v128c0 36-28 64-64 64zM42 746h598v-596h-598zM106 918h470c36 0 64-30 64-64v-64h-598v64c0 34 30 64 64 64zM576-22h-470c-34 0-64 30-64 64v64h598v-64c0-34-28-64-64-64zM854 490c0 24 18 44 42 44v-86c-24 0-42 20-42 42zM982 426c0-12-10-20-22-20s-22 8-22 20v128c0 12 10 22 22 22s22-10 22-22zM384 42c0-22-20-42-42-42-24 0-44 20-44 42 0 24 20 44 44 44 22 0 42-20 42-44zM362 854c0-12-8-22-20-22s-22 10-22 22c0 12 10 20 22 20s20-8 20-20z" />
<glyph unicode="&#x36;" d="M874 598c-24 0-48-6-70-18-4 10-10 18-18 28 0 2-2 4-4 4-48 64-120 110-200 128 10 14 16 30 16 50 0 46-38 84-86 84s-86-38-86-84c0-20 6-36 16-50-80-18-152-64-200-128-2 0-4-2-4-4-38-52-62-114-66-180-28 6-66 28-66 126 0 78-52 108-84 108-12 0-22-10-22-22s10-22 22-22c12 0 42-10 42-64 0-128 60-162 108-168 4-68 26-132 68-186 4-4 10-8 16-8h512c6 0 12 4 16 8 24 32 42 66 54 104 12-4 24-6 36-6 82 0 150 68 150 150s-68 150-150 150zM720 618h-416c54 54 126 86 208 86s154-32 208-86zM470 790c0 22 18 42 42 42s42-20 42-42c0-24-18-44-42-44s-42 20-42 44zM756 234h-488c-36 52-54 110-54 172s20 122 54 170h488c34-48 54-108 54-170s-18-120-54-172zM874 342c-8 0-18 0-26 4 4 18 6 38 6 60 0 48-12 94-30 136 16 8 32 12 50 12 60 0 108-48 108-106s-48-106-108-106zM918 150h-812c-12 0-20-10-20-22s8-22 20-22h86v-42c0-12 10-22 22-22s20 10 20 22v42h598v-42c0-12 10-22 22-22s20 10 20 22v42h44c12 0 20 10 20 22s-8 22-20 22z" />
<glyph unicode="&#x37;" d="M1002 214h-980c-12 0-22-10-22-22v-42c0-36 28-64 64-64h896c36 0 64 28 64 64v42c0 12-10 22-22 22zM982 150c0-12-10-22-22-22h-896c-12 0-22 10-22 22v20h940zM150 256h724c36 0 64 28 64 64v426c0 36-28 64-64 64h-724c-36 0-64-28-64-64v-426c0-36 28-64 64-64zM128 746c0 12 10 22 22 22h724c12 0 22-10 22-22v-426c0-12-10-22-22-22h-724c-12 0-22 10-22 22zM854 726h-684v-384h684zM810 384h-596v298h596z" />
<glyph unicode="&#x38;" d="M766 890c-96 0-204-54-254-176-50 122-158 176-254 176-124 0-258-90-258-288 0-146 84-300 252-454 124-114 244-184 250-188 2-2 6-2 10-2s8 0 10 2c6 4 126 74 250 188 168 154 252 308 252 454 0 198-134 288-258 288zM512 4c-70 44-470 302-470 598 0 168 112 246 216 246 96 0 204-66 234-212 0-10 10-18 20-18s20 8 20 18c30 146 138 212 234 212 104 0 216-78 216-246 0-296-400-554-470-598z" />
<glyph unicode="&#x39;" d="M1024 746v214h-214v-86h-596v86h-214v-214h106v-596h-106v-214h214v86h596v-86h214v214h-86v596zM854 918h128v-128h-128zM42 918h128v-128h-128zM170-22h-128v128h128zM982-22h-128v128h128zM896 150h-86v-86h-596v86h-64v596h64v86h596v-86h86z" />
<glyph unicode="&#x3a;" d="M932 838c8 8 8 22 0 30s-22 8-30 0l-206-206h-440v64c0 12-10 20-22 20h-128c-12 0-20-8-20-20v-64h-64c-12 0-22-10-22-22v-128c0-12 10-22 22-22h64v-448c0-12 8-20 20-20h448v-64c0-12 10-22 22-22h128c12 0 22 10 22 22v64h64c12 0 20 8 20 20v128c0 12-8 22-20 22h-64v440zM128 704h86v-42h-86zM42 534v84h640v-426h-84v320c0 2-2 6-2 8-2 6-6 10-12 12-2 0-6 2-8 2zM256 490h268l-268-268zM554 460v-268h-268zM598-22v44h84v-44zM768 150v-86h-640v426h86v-320c0-2 0-4 0-8 4-4 8-8 12-12 4 0 6 0 8 0z" />
<glyph unicode="&#x3b;" d="M124 152l6-2h764l6 2c78 52 124 138 124 232 0 152-124 278-278 278-40 0-80-10-116-28-30 14-62 24-96 26v46c60 10 106 62 106 126 0 70-58 128-128 128s-128-58-128-128c0-64 46-116 106-126v-46c-34-2-66-12-96-26-36 18-76 28-116 28-154 0-278-126-278-278 0-94 46-180 124-232zM512 918c40 0 72-28 82-64h-164c10 36 42 64 82 64zM430 810h164c-10-36-42-64-82-64s-72 28-82 64zM278 618c24 0 48-4 70-10-68-52-114-132-114-224 0-32 6-64 16-94 4-8 12-14 20-14 4 0 6 2 8 2 12 4 16 16 12 28-8 24-12 50-12 78 0 130 104 234 234 234s234-104 234-234c0-26-4-54-12-78-4-12 2-24 12-28 12-4 24 2 28 14 10 30 16 60 16 92 0 92-46 172-114 224 22 6 46 10 70 10 130 0 236-104 236-234 0-76-38-148-100-192h-740c-62 44-100 116-100 192 0 130 106 234 236 234zM896 106h-768c-56 0-84-42-84-84 0-44 28-86 84-86h768c56 0 84 42 84 86 0 42-28 84-84 84zM896-22h-768c-32 0-42 24-42 44s10 42 42 42h768c32 0 42-24 42-42 0-20-10-44-42-44z" />
<glyph unicode="&#x3c;" d="M934 596c0 0 0 2 0 2 0 2-2 4-2 6-34 202-208 356-420 356s-386-154-420-356c0-2-2-4-2-6 0 0 0-2 0-2-2-20-4-42-4-62v-108c0-122 94-222 212-234v-192c0-12 10-22 22-22s22 10 22 22v234h-22c-106 0-192 86-192 192v108c0 14 2 28 2 42 88 10 168 74 168 192 0 12-8 22-20 22s-22-10-22-22c0-94-62-136-118-146 40 168 192 296 374 296s334-128 374-296c-56 10-118 52-118 146 0 12-10 22-22 22s-20-10-20-22c0-118 82-182 168-192 0-14 2-28 2-42v-108c0-106-86-192-192-192h-22v-234c0-12 10-22 22-22s22 10 22 22v192c118 12 212 112 212 234v108c0 20-2 42-4 62zM448 234c-12 0-22-8-22-20v-214c0-12 10-22 22-22s22 10 22 22v214c0 12-10 20-22 20zM576 234c-12 0-22-8-22-20v-214c0-12 10-22 22-22s22 10 22 22v214c0 12-10 20-22 20zM854 426c0 82-68 150-150 150s-150-68-150-150c0-82 68-148 150-148s150 66 150 148zM598 426c0 60 48 108 106 108s106-48 106-108c0-58-48-106-106-106s-106 48-106 106zM320 576c-82 0-150-68-150-150s68-148 150-148c82 0 150 66 150 148s-68 150-150 150zM320 320c-58 0-106 48-106 106 0 60 48 108 106 108s106-48 106-108c0-58-48-106-106-106zM550 312l-18 38c-8 16-32 16-40 0l-20-42c-4-6-4-14 0-20s12-10 18-10h44c0 0 0 0 0 0 12 0 22 8 22 20 0 6-2 10-6 14z" />
<glyph unicode="&#x3d;" d="M512 960c-282 0-512-230-512-512s230-512 512-512c282 0 512 230 512 512s-230 512-512 512zM512-22c-258 0-470 212-470 470s212 470 470 470c258 0 470-212 470-470s-212-470-470-470zM784 720c-8 8-22 8-30 0l-198-198c-14 6-28 12-44 12-48 0-86-38-86-86s38-86 86-86c48 0 86 38 86 86 0 16-6 30-12 44l198 198c8 8 8 22 0 30zM512 406c-24 0-42 18-42 42s18 42 42 42c24 0 42-18 42-42s-18-42-42-42zM214 448c0 12-10 22-22 22h-86c-12 0-20-10-20-22s8-22 20-22h86c12 0 22 10 22 22zM208 346l-78-34c-12-4-16-16-12-28 4-8 12-12 20-12 2 0 6 0 8 2l78 32c12 4 16 16 12 28-4 10-16 16-28 12zM894 312l-78 34c-12 4-24-2-28-12-4-12 0-24 12-28l78-32c2-2 6-2 8-2 8 0 16 4 20 12 4 12 0 24-12 28zM918 470h-86c-12 0-22-10-22-22s10-22 22-22h86c12 0 20 10 20 22s-8 22-20 22zM788 562c4-8 12-12 20-12 2 0 6 0 8 0l78 34c12 4 16 16 12 28-4 10-16 16-28 10l-78-32c-12-4-16-16-12-28zM626 724c2-2 6-2 8-2 8 0 16 6 20 14l32 78c6 12 0 24-10 28-12 4-24 0-28-12l-34-78c-4-12 2-24 12-28zM512 746c12 0 22 10 22 22v86c0 12-10 20-22 20s-22-8-22-20v-86c0-12 10-22 22-22zM370 736c4-8 12-14 20-14 2 0 6 0 8 2 10 4 16 16 12 28l-34 78c-4 12-16 16-28 12-10-4-16-16-10-28zM300 690l-60 60c-8 8-22 8-30 0s-8-22 0-30l60-60c4-4 10-8 16-8s10 4 14 8c10 8 10 20 0 30zM130 584l78-34c2 0 6 0 8 0 8 0 16 4 20 12 4 12 0 24-12 28l-78 32c-12 6-24 0-28-10-4-12 0-24 12-28zM704 278h-384c-12 0-22-10-22-22v-128c0-12 10-22 22-22h384c12 0 22 10 22 22v128c0 12-10 22-22 22zM682 150h-340v84h340z" />
<glyph unicode="&#x3e;" d="M342 662c-12 0-22-10-22-22v-534c0-12 10-20 22-20s20 8 20 20v534c0 12-8 22-20 22zM512 662c-12 0-22-10-22-22v-534c0-12 10-20 22-20s22 8 22 20v534c0 12-10 22-22 22zM682 662c-12 0-20-10-20-22v-534c0-12 8-20 20-20s22 8 22 20v534c0 12-10 22-22 22zM1024 810h-278v128h-468v-128h-278v-42h150v-832h724v832h150zM320 896h384v-86h-384zM832-22h-640v790h640z" />
<glyph unicode="&#x3f;" d="M512 918c-240 0-426-86-426-192v-556c0-108 186-192 426-192s426 84 426 192v556c0 106-186 192-426 192zM896 362c0-88-202-148-384-148s-384 60-384 148v108c68-64 212-108 384-108s316 44 384 108zM896 554c0-88-202-148-384-148s-384 60-384 148v86c68-64 212-106 384-106s316 42 384 106zM512 874c182 0 384-60 384-148s-202-150-384-150c-182 0-384 62-384 150s202 148 384 148zM512 22c-182 0-384 60-384 148v108c68-64 212-108 384-108s316 44 384 108v-108c0-88-202-148-384-148z" />
<glyph unicode="&#x40;" d="M938 746c-12 0-20-8-20-20s8-22 20-22c24 0 44-20 44-42v-640c0-24-20-44-44-44h-852c-24 0-44 20-44 44v42h128v554h-128v44c0 22 20 42 44 42h426c12 0 22 10 22 22s-10 20-22 20h-426c-48 0-86-38-86-84v-640c0-48 38-86 86-86h852c48 0 86 38 86 86v640c0 46-38 84-86 84zM42 406h86v-128h-86zM42 106v128h86v-128zM128 576v-128h-86v128zM426 618c12 0 22 10 22 22s-10 22-22 22h-212v-640h724v640h-84c-12 0-22-10-22-22s10-22 22-22h42v-554h-640v554zM782 902l-354-352-42-134-38-38c-8-8-8-22 0-30 4-4 10-6 14-6 6 0 12 2 16 6l38 38 134 42 2 4 230 230c0 0 0 0 0 0s0 0 0 0l150 150c34 34 34 88 0 120-32 34-88 34-120 0l-30-30c0 0 0 0 0 0s0 0 0 0zM766 706l-60 60 92 92 60-60zM538 478l-60 60 198 198 60-60zM456 498l42-42-60-18zM902 902c18-16 18-44 0-60l-14-14-60 60 14 14c16 16 44 16 60 0z" />
<glyph unicode="&#x41;" d="M1018 834l-120 120c-4 4-10 6-16 6s-10-2-14-6l-18-16c-40 26-98 22-134-14l-240-242c-10-8-10-22 0-30 4-4 8-6 14-6s12 2 16 6l240 242c20 20 50 24 74 12l-616-616c-8-8-8-22 0-30l8-8c-8 2-14 2-20 2-34 0-66-14-90-38-80-78-80-232-80-238 0 0 0 0 0 0v-22h20c8 0 160 2 240 82 24 24 36 56 36 90 0 6 0 12-2 18l8-6c4-4 10-8 16-8s10 4 14 8l422 422c0 0 0 0 0 0s0 0 0 0l242 240c8 10 8 22 0 32zM252 68c-40-40-106-56-152-64l78 80c8 8 8 22 0 30s-22 8-30 0l-80-80c8 48 24 114 64 152 16 16 38 26 60 26s44-10 60-26c16-16 24-36 24-58 0-24-8-44-24-60zM340 184l-92 90 394 394 90-92zM762 606l-90 92 210 210 90-90z" />
<glyph unicode="&#x42;" d="M1018 832l-122 122c-4 4-8 6-14 6s-12-2-16-6l-16-18c-42 28-98 24-134-12l-242-242c-8-8-8-22 0-30 4-4 10-6 16-6 4 0 10 2 14 6l242 242c20 18 48 22 72 12l-692-692c-8-8-8-22 0-30l16-16-76-74c-4-4-6-10-6-16s2-12 6-16l16-14-76-76c-8-8-8-22 0-30 4-4 10-6 16-6 4 0 10 2 14 6l76 76 14-16c6-4 10-6 16-6s10 2 16 6l74 76 16-16c4-4 10-6 14-6 6 0 12 2 16 6l740 740c8 8 8 22 0 30zM142 48l-30 30 60 60 30-30zM262 108l-74 76c0 0 0 0 0 0s0 0 0 0l-16 14 468 468 90-90zM760 606l-90 90 212 212 90-90z" />
<glyph unicode="&#x43;" d="M672 774l138 186h-596l138-186c-50-34-182-134-182-284 0-174 250-530 260-544l6-10h152l6 10c10 14 260 370 260 544 0 150-132 250-182 284zM726 918l-96-128h-236l-96 128zM564-22h-30v428h-44v-428h-30c-40 58-246 366-246 512 0 142 148 240 176 256h244c28-16 176-114 176-256 0-146-206-454-246-512zM618 512c0 58-48 106-106 106s-106-48-106-106c0-58 48-106 106-106s106 48 106 106zM512 448c-36 0-64 28-64 64s28 64 64 64c36 0 64-28 64-64s-28-64-64-64z" />
<glyph unicode="&#x44;" d="M598 692v54h38l52 214h-352l52-214h38v-54c-104-32-170-122-170-244s100-296 172-424c16-28 32-54 44-76l6-12h68l6 12c12 22 28 48 44 76 72 128 172 302 172 424s-66 212-170 244zM390 918h244l-32-128h-180zM470 746h84v-46c-14 2-28 4-42 4s-28-2-42-4zM512 362c-24 0-42 20-42 44 0 22 18 42 42 42s42-20 42-42c0-24-18-44-42-44zM558 46c-8-16-16-30-24-44v322c36 8 64 42 64 82 0 46-38 84-86 84s-86-38-86-84c0-40 28-74 64-82v-322c-8 14-16 28-24 44-70 122-168 292-168 402 0 130 84 214 214 214s214-84 214-214c0-110-98-280-168-402z" />
<glyph unicode="&#x45;" d="M854 214h-684v426h44v42h-64c-12 0-22-8-22-20v-470c0-12 10-22 22-22h724c12 0 22 10 22 22v106h-42zM1002 854h-724c-12 0-22-10-22-22v-470c0-12 10-20 22-20h724c12 0 22 8 22 20v470c0 12-10 22-22 22zM982 384h-684v426h684zM726 42h-684v428h44v42h-64c-12 0-22-10-22-22v-468c0-12 10-22 22-22h724c12 0 22 10 22 22v106h-42z" />
<glyph unicode="&#x46;" d="M0 960v-1024h1024v1024zM982 918v-684h-30l-146 290c-14 32-46 52-82 52-34 0-64-18-80-46l-114-194c-32 40-104 112-188 112-106 0-184-162-206-214h-94v684zM904 234h-722c32 66 94 172 160 172 94 0 172-118 174-120 4-6 10-10 18-8 8 0 14 4 18 10l128 220c10 16 26 26 44 26s36-12 44-28zM42-22v214h940v-214zM278 576h128c70 0 128 58 128 128s-58 128-128 128c-56 0-104-34-122-86-48 4-92-36-92-84s38-86 86-86zM278 704c4 0 10-2 14-4l26-8 4 26c6 42 42 72 84 72 46 0 84-38 84-86s-38-86-84-86h-128c-24 0-44 20-44 44 0 22 20 42 44 42z" />
<glyph unicode="&#x47;" d="M982 726v-748h-748v-42h790v790zM938 854h-42v-790h-790v-42h832zM854 278v682h-854v-854h854zM42 918h768v-598h-70l-122 328c-4 6-10 12-18 14-8 0-16-4-20-10l-156-232-88 106c-4 4-10 8-18 8-6-2-12-6-16-12l-122-202h-138zM694 320h-464l92 156 88-106c4-4 12-8 18-8 6 2 12 4 16 10l148 222zM42 150v128h768v-128zM256 662c48 0 86 38 86 84 0 48-38 86-86 86s-86-38-86-86c0-46 38-84 86-84zM256 790c24 0 42-20 42-44 0-22-18-42-42-42s-42 20-42 42c0 24 18 44 42 44z" />
<glyph unicode="&#x48;" d="M512 726h86c12 0 20 8 20 20s-8 22-20 22h-86c-12 0-22-10-22-22s10-20 22-20zM790 682h-236c-12 0-20-8-20-20s8-22 20-22h236c12 0 20 10 20 22s-8 20-20 20zM490 554h278c12 0 22 10 22 22s-10 22-22 22h-278c-12 0-20-10-20-22s8-22 20-22zM790 512h-300c-12 0-20-10-20-22s8-20 20-20h300c12 0 20 8 20 20s-8 22-20 22zM746 384c12 0 22 10 22 22s-10 20-22 20h-256c-12 0-20-8-20-20s8-22 20-22zM768 342h-298c-12 0-22-10-22-22s10-22 22-22h298c12 0 22 10 22 22s-10 22-22 22zM960 960h-532c-50 0-64-56-66-86 0-4 4-384-38-618h-196c-18 0-34-6-46-18-24-24-24-68-24-116 0-42 2-88-20-110-8-8-20-12-38-12v-42h532c30 0 52 8 70 24 16 16 22 38 28 60h158c18 0 36 8 50 24 90 92 102 500 100 702h86v22c0 64-8 170-64 170zM572 12c-10-8-22-12-40-12h-450c20 34 20 80 20 122 0 36-2 74 12 86 2 2 4 6 14 6h472c-10-26-10-58-10-92 2-42 2-88-18-110zM634 122c0 36 0 74 12 86 2 2 6 6 14 6s16-2 20-6c8-8 8-28 8-48-2-24-2-52 10-74h-64c0 12 0 24 0 36zM808 96c-10-10-18-10-20-10-22 0-38 4-46 12-12 12-12 38-12 62 0 28 0 58-20 78-12 12-28 18-50 18h-292c42 238 38 602 38 618 0 0 2 44 22 44h476c-6-16-8-32-10-44 6-186 0-690-86-778zM938 810c0 32 0 54 0 64 0 0 2 40 20 44v0c12-8 20-56 22-108z" />
<glyph unicode="&#x49;" d="M922-30l-110 144v188c0 72-42 104-104 156-8 6-16 14-24 22v96c0 48-40 86-86 86h-298c-48 0-86-38-86-86v-470c0-46 38-84 86-84h304c4-16 12-32 22-46l22-32c4-4 10-8 16-8s10 2 14 4c8 6 12 20 4 30l-22 30c-12 18-20 40-20 62v66l-4 12-96 138-2 4c-10 10-10 24 0 34 10 8 24 8 34 0l118-118c8-8 22-8 30 0s8 22 0 30l-36 36v160c58-48 84-72 84-122v-196l4-12 118-150c4-6 10-8 16-8 4 0 10 2 14 4 8 8 10 22 2 30zM602 346c-26 26-68 26-94 0s-26-66-2-92l92-132v-58h-298c-24 0-44 20-44 42v470c0 24 20 42 44 42h298c24 0 42-18 42-42v-268zM328 696c32 32 74 50 120 50s88-18 122-50l30 30c-40 42-94 64-152 64-56 0-110-22-150-64zM660 788c-116 116-306 116-422 0l30-30c100 98 262 98 362 0zM690 818l30 30c-150 150-394 150-544 0l32-30c132 132 348 132 482 0zM384 512c0-12-10-22-20-22-12 0-22 10-22 22s10 22 22 22c10 0 20-10 20-22zM470 512c0-12-10-22-22-22s-20 10-20 22c0 12 8 22 20 22s22-10 22-22zM556 512c0-12-10-22-22-22s-22 10-22 22c0 12 10 22 22 22s22-10 22-22zM384 426c0-12-10-20-20-20-12 0-22 8-22 20s10 22 22 22c10 0 20-10 20-22zM470 426c0-12-10-20-22-20s-20 8-20 20c0 12 8 22 20 22s22-10 22-22zM384 342c0-12-10-22-20-22-12 0-22 10-22 22s10 20 22 20c10 0 20-8 20-20zM470 342c0-12-10-22-22-22s-20 10-20 22c0 12 8 20 20 20s22-8 22-20zM384 256c0-12-10-22-20-22-12 0-22 10-22 22s10 22 22 22c10 0 20-10 20-22zM470 256c0-12-10-22-22-22s-20 10-20 22c0 12 8 22 20 22s22-10 22-22zM384 170c0-12-10-20-20-20-12 0-22 8-22 20s10 22 22 22c10 0 20-10 20-22zM470 170c0-12-10-20-22-20s-20 8-20 20c0 12 8 22 20 22s22-10 22-22zM556 426c0-12-10-20-22-20s-22 8-22 20c0 12 10 22 22 22s22-10 22-22z" />
<glyph unicode="&#x4a;" d="M938 832c0-24-18-42-42-42s-42 18-42 42c0 24 18 42 42 42s42-18 42-42zM170 832c0-24-18-42-42-42s-42 18-42 42c0 24 18 42 42 42s42-18 42-42zM938 64c0-24-18-42-42-42s-42 18-42 42c0 24 18 42 42 42s42-18 42-42zM170 64c0-24-18-42-42-42s-42 18-42 42c0 24 18 42 42 42s42-18 42-42zM512 554c-58 0-106-48-106-106s48-106 106-106c58 0 106 48 106 106s-48 106-106 106zM512 384c-36 0-64 28-64 64s28 64 64 64c36 0 64-28 64-64s-28-64-64-64zM512 832c-212 0-384-172-384-384s172-384 384-384c212 0 384 172 384 384s-172 384-384 384zM512 106c-188 0-342 154-342 342s154 342 342 342c188 0 342-154 342-342s-154-342-342-342zM922 220c38 70 60 148 60 228s-22 158-60 228l64 66c24 24 38 56 38 90s-14 66-38 90c-24 24-56 38-90 38s-66-14-90-38l-66-64c-70 38-148 60-228 60s-158-22-228-60l-66 64c-24 24-56 38-90 38s-66-14-90-38c-24-24-38-56-38-90s14-66 38-90l64-66c-38-70-60-148-60-228s22-158 60-228l-64-66c-24-24-38-56-38-90s14-66 38-90c24-24 56-38 90-38s66 14 90 38l66 64c70-38 148-60 228-60s158 22 228 60l66-64c24-24 56-38 90-38s66 14 90 38c24 24 38 56 38 90s-14 66-38 90zM956 4c-16-16-38-26-60-26s-44 10-60 26l-88 88-16-8c-66-42-142-62-220-62s-154 20-220 62l-16 8-88-88c-16-16-38-26-60-26s-44 10-60 26c-16 16-26 38-26 60s10 44 26 60l88 88-8 16c-42 66-62 142-62 220s20 154 62 220l8 16-88 88c-16 16-26 38-26 60s10 44 26 60c16 16 38 26 60 26s44-10 60-26l88-88 16 8c66 42 142 62 220 62s154-20 220-62l16-8 88 88c16 16 38 26 60 26s44-10 60-26c16-16 26-38 26-60s-10-44-26-60l-88-88 8-16c42-66 62-142 62-220s-20-154-62-220l-8-16 88-88c16-16 26-38 26-60s-10-44-26-60z" />
<glyph unicode="&#x4b;" d="M384 740v-506h-86c-70 0-128-56-128-128 0-70 58-128 128-128 68 0 128 60 128 128v456l384 154v-354h-84c-72 0-128-56-128-128 0-70 56-128 128-128 68 0 128 60 128 128v694zM384 106c0-40-36-84-86-84-46 0-84 38-84 84 0 48 38 86 84 86h86zM810 234c0-40-36-84-84-84s-86 38-86 84c0 48 38 86 86 86h84zM426 608v102l384 154v-102z" />
<glyph unicode="&#x4c;" d="M696 952c-128 0-234-104-234-234s106-234 234-234c130 0 236 104 236 234s-106 234-236 234zM696 526c-104 0-192 86-192 192s88 192 192 192c106 0 192-86 192-192s-86-192-192-192zM1016 740c0-12-8-22-20-22s-22 10-22 22c0 12 10 20 22 20s20-8 20-20zM996 696c-12 0-22-8-22-20v-684c0-10 10-20 22-20s20 10 20 20v684c0 12-8 20-20 20zM792 162c-10 4-22 0-28-8-18-28-48-44-80-44-36 0-72 22-72 74 0 90-72 138-138 138-28 0-54-8-76-24-20 16-46 24-76 24-66 0-138-48-138-138 0-22-6-42-22-56-12-12-30-18-50-18-32 0-60 16-80 44-6 8-18 12-26 8-10-4-16-16-12-26 28-110 102-172 204-172 78 0 156 38 200 96 44-58 122-96 200-96 102 0 176 62 204 172 4 10-2 22-10 26zM598 6c-74 0-152 44-180 104-4 6-12 10-20 10s-16-4-18-10c-30-60-108-104-182-104-36 0-92 10-132 68 14-4 30-8 46-8 0 0 0 0 0 0 30 0 60 12 80 32 24 22 36 52 36 86 0 64 48 96 94 96 24 0 46-8 60-24 8-10 24-10 32 0 14 16 36 24 60 24 46 0 94-32 94-96 0-76 60-118 116-118 16 0 32 4 46 8-40-58-96-68-132-68zM804 718c0-58-48-106-108-106-10 0-20-10-20-22s10-22 20-22c84 0 150 68 150 150 0 12-10 22-22 22-10 0-20-10-20-22z" />
<glyph unicode="&#x4d;" d="M854 534c-12 0-22-10-22-22v-64h-42v234c0 120-76 222-184 260 0 2-2 2-2 2-30 10-60 16-92 16s-62-6-92-16c0 0-2 0-2-2-108-38-184-140-184-260v-234h-42v64c0 12-10 22-22 22s-20-10-20-22v-86c0-196 148-350 340-360v-130h44v130c192 10 340 164 340 360v86c0 12-8 22-20 22zM278 490h148c12 0 22 10 22 22s-10 22-22 22h-148v42h148c12 0 22 10 22 22s-10 20-22 20h-148v44h148c12 0 22 8 22 20s-10 22-22 22h-148c8 82 58 152 128 188v-82c0-12 8-20 20-20s22 8 22 20v98c14 4 28 6 42 8v-106c0-12 10-20 22-20s22 8 22 20v106c14-2 28-4 42-8v-98c0-12 10-20 22-20s20 8 20 20v82c70-36 120-106 128-188h-148c-12 0-22-10-22-22s10-20 22-20h148v-44h-148c-12 0-22-8-22-20s10-22 22-22h148v-42h-148c-12 0-22-10-22-22s10-22 22-22h148v-42h-468zM746 406c-12-120-112-214-234-214s-222 94-234 214zM512 106c-172 0-308 130-318 300h42c10-144 130-256 276-256s266 112 276 256h42c-10-170-146-300-318-300z" />
<glyph unicode="&#x4e;" d="M512 662c82 0 150 66 150 148s-68 150-150 150c-82 0-150-68-150-150s68-148 150-148zM512 918c58 0 106-48 106-108 0-58-48-106-106-106s-106 48-106 106c0 60 48 108 106 108zM426 340v-170c0-12 10-20 22-20h128c12 0 22 8 22 20v170c94 50 128 180 128 278 0 12-10 22-22 22h-384c-12 0-22-10-22-22 0-98 34-228 128-278zM682 598c-4-76-32-190-114-224-8-4-14-12-14-20v-162h-84v162c0 8-6 16-14 20-82 34-110 148-114 224zM512 86c-172 0-272 34-278 52 2 4 26 26 110 40 12 2 20 14 18 26s-12 18-24 16c-98-16-146-44-146-82 0-76 202-96 320-96s320 20 320 96c0 38-48 66-144 82-12 2-24-4-26-16s6-24 18-26c86-14 108-36 110-38-6-20-106-54-278-54zM686 310c-12 0-22-8-24-20-2-10 6-22 18-24 198-24 302-88 302-138 0-70-194-150-470-150s-470 80-470 150c0 50 104 114 302 138 12 2 20 14 18 24-2 12-12 20-24 20-164-22-338-80-338-182 0-94 180-192 512-192s512 98 512 192c0 102-174 160-338 182z" />
<glyph unicode="&#x4f;" d="M512 960c-188 0-342-154-342-342 0-180 312-632 324-652l18-24 18 24c12 20 324 472 324 652 0 188-154 342-342 342zM512 16c-66 100-298 458-298 602 0 166 134 300 298 300s298-134 298-300c0-144-232-502-298-602zM512 768c-82 0-150-66-150-150 0-82 68-148 150-148s150 66 150 148c0 84-68 150-150 150zM512 512c-58 0-106 48-106 106 0 60 48 108 106 108s106-48 106-108c0-58-48-106-106-106z" />
<glyph unicode="&#x50;" d="M922 222l-260 72v76c76 58 128 156 128 270 0 176-124 320-278 320-152 0-276-144-276-320 0-112 50-212 126-268v-78l-262-72c-60-22-100-78-100-142v-144h1024v144c0 64-40 120-102 142zM512 918c102 0 188-78 220-186-8-8-20-12-36-12-42 2-100 38-122 80l-20 34-18-36c-18-36-50-56-92-64-56-10-116 10-142 22 36 96 118 162 210 162zM280 640c0 26 2 52 8 76 40-20 104-34 164-24 44 8 78 28 104 60 36-42 92-72 140-74 0 0 2 0 4 0 16 0 30 4 42 10 4-16 4-32 4-48 0-152-104-278-234-278-128 0-232 126-232 278zM980-22h-936v102c0 46 28 86 68 100l294 82v84c32-18 68-26 106-26s74 8 106 24v-82l292-82c42-14 70-54 70-100z" />
<glyph unicode="&#x51;" d="M1018 440l-120 122c-8 8-24 8-32 0l-338-338c-32-32-74-50-120-50s-88 18-120 50c-68 66-68 174 0 240l338 338c4 4 6 10 6 16s-2 12-6 16l-122 120c-8 8-20 8-30 0l-346-348c-150-148-150-392 0-542 72-72 168-112 272-112 102 0 198 40 270 112l348 346c4 4 6 10 6 16s-2 10-6 14zM490 908l90-90-60-60-90 90zM640 94c-64-64-150-100-240-100-92 0-178 36-242 100-134 132-134 350 0 482l242 242 90-90-232-234c-84-82-84-218 0-300 40-42 94-64 150-64 58 0 110 22 150 64l234 232 90-90zM912 366l-90 90 60 60 90-90z" />
<glyph unicode="&#x52;" d="M972 636l-82 80 64 122c8 14 6 32-6 42-6 8-16 12-26 12-4 0-10-2-16-4l-122-66-84 86c-6 6-16 10-26 10-6 0-12-2-18-4-14-8-20-26-16-42l26-106-128-60c-14-6-22-22-20-38s16-28 32-30l108-14-566-566c-8-8-8-22 0-30 4-4 10-6 14-6 6 0 12 2 16 6l570 570 14-116c2-16 14-30 30-32 2 0 4 0 6 0 14 0 26 8 32 20l60 130 104-24c2-2 6-2 8-2 12 0 26 8 32 18 8 14 6 32-6 44zM814 642l-72-156-22 168-166 20 156 72-36 136 104-104 144 76-76-144 100-100z" />
<glyph unicode="&#x53;" d="M810 960h-596c-72 0-128-58-128-128v-704c0-28 18-52 42-60v-110c0-12 10-22 22-22h724c12 0 22 10 22 22v110c24 8 42 32 42 60v704c0 70-56 128-128 128zM854-22h-684v86h684zM896 128c0-12-10-22-22-22h-724c-12 0-22 10-22 22v704c0 48 38 86 86 86h596c48 0 86-38 86-86zM782 874h-540c-40 0-72-26-72-60v-434c0-34 32-60 72-60h540c40 0 72 26 72 60v434c0 34-32 60-72 60zM810 380c0-8-10-18-28-18h-540c-18 0-28 10-28 18v434c0 8 10 18 28 18h540c18 0 28-10 28-18zM298 234h-84c-12 0-22-8-22-20s10-22 22-22h84c12 0 22 10 22 22s-10 20-22 20zM810 234h-212c-12 0-22-8-22-20s10-22 22-22h212c12 0 22 10 22 22s-10 20-22 20zM384 726c0 12-10 20-22 20s-20-8-20-20v-86c0-12 8-22 20-22s22 10 22 22zM662 746c-12 0-22-8-22-20v-86c0-12 10-22 22-22s20 10 20 22v86c0 12-8 20-20 20zM490 534h44c12 0 20 8 20 20v128c0 12-8 22-20 22s-22-10-22-22v-106h-22c-12 0-20-10-20-22s8-20 20-20zM618 490c-12 0-20-8-20-20s-10-22-22-22h-128c-12 0-22 10-22 22s-8 20-20 20c-12 0-22-8-22-20 0-36 28-64 64-64h128c36 0 64 28 64 64 0 12-10 20-22 20z" />
<glyph unicode="&#x54;" d="M490 284v-114c0-12 10-20 22-20s22 8 22 20v114c12 6 20 20 20 36 0 24-18 42-42 42s-42-18-42-42c0-16 8-30 20-36zM768 576v128c0 142-114 256-256 256s-256-114-256-256h42c0 118 96 214 214 214s214-96 214-214v-128h-598v-640h768v640zM854-22h-684v556h684z" />
<glyph unicode="&#x55;" d="M490 284v-114c0-12 10-20 22-20s22 8 22 20v114c12 6 20 20 20 36 0 24-18 42-42 42s-42-18-42-42c0-16 8-30 20-36zM768 576v128c0 142-114 256-256 256s-256-114-256-256v-128h-128v-640h768v640zM298 704c0 118 96 214 214 214s214-96 214-214v-128h-428zM854-22h-684v556h684z" />
<glyph unicode="&#x56;" d="M512 266l-136-134c-20-20-46-32-76-32-28 0-54 12-74 32l-30 30c-42 40-42 108 0 150l196 196c20 20 46 32 74 32 30 0 56-12 76-32l30-30c8-8 22-8 30 0s8 22 0 30l-30 30c-28 28-66 44-106 44s-76-16-104-44l-196-196c-60-58-60-152 0-210l30-30c28-30 64-44 104-44s78 14 106 44l136 134c8 10 8 22 0 30-8 10-22 10-30 0zM858 764l-30 30c-58 60-152 60-210 0l-136-134c-8-10-8-22 0-30 8-10 22-10 30 0l136 134c42 42 110 42 150 0l30-30c42-40 42-108 0-150l-196-196c-20-20-46-32-74-32-30 0-56 12-76 32-8 8-22 8-30 0s-8-22 0-30c28-28 66-44 106-44s76 16 104 44l196 196c60 58 60 152 0 210z" />
<glyph unicode="&#x57;" d="M512 960c-282 0-512-230-512-512s230-512 512-512c282 0 512 230 512 512s-230 512-512 512zM512-22c-258 0-470 212-470 470s212 470 470 470c258 0 470-212 470-470s-212-470-470-470zM832 426c-12 0-22-8-22-20 0-166-134-300-298-300s-298 134-298 300c0 12-10 20-22 20s-22-8-22-20c0-188 154-342 342-342s342 154 342 342c0 12-10 20-22 20zM234 512c12 0 22 10 22 22 0 34 28 64 64 64s64-30 64-64c0-12 10-22 22-22s20 10 20 22c0 58-48 106-106 106s-106-48-106-106c0-12 8-22 20-22zM618 512c12 0 22 10 22 22 0 34 28 64 64 64s64-30 64-64c0-12 10-22 22-22s20 10 20 22c0 58-48 106-106 106s-106-48-106-106c0-12 8-22 20-22z" />
<glyph unicode="&#x58;" d="M1024 192c0 52-36 94-86 104v2c0 44-26 82-64 98v52c0 200-162 362-362 362s-362-162-362-362v-46c-38-10-64-42-64-82v-24c-50-10-86-52-86-104s36-94 86-104v-24c0-48 38-86 84-86h44c46 0 84 38 84 86v256c0 48-38 86-84 86h-22v42c0 176 144 320 320 320s320-144 320-320v-42c-58 0-106-48-106-108v-212c0-60 48-108 106-108s106 48 106 108v2c50 10 86 52 86 104zM42 192c0 28 18 52 44 60v-120c-26 8-44 32-44 60zM256 320v-256c0-24-20-42-42-42h-44c-22 0-42 18-42 42v256c0 24 20 42 42 42h44c22 0 42-18 42-42zM896 86c0-36-28-64-64-64s-64 28-64 64v212c0 36 28 64 64 64s64-28 64-64zM938 132v120c26-8 44-32 44-60s-18-52-44-60z" />
<glyph unicode="&#x59;" d="M874 384c-12 0-20-10-20-22v-384h-214v278h-256v-278h-214v406c0 12-8 22-20 22s-22-10-22-22v-448h298v278h172v-278h298v426c0 12-10 22-22 22zM1018 420l-506 484-506-484c-8-8-8-20 0-30 8-8 22-8 30 0l476 456 476-456c4-4 10-6 14-6 6 0 12 2 16 6 8 10 8 22 0 30zM682 790h128v-128c0-12 10-22 22-22s22 10 22 22v170h-172c-12 0-20-10-20-22s8-20 20-20z" />
<glyph unicode="&#x5a;" d="M854 832h-684v-426h684zM810 448h-596v342h596zM710 106l-32 128h-332l-32-128zM380 192h264l12-42h-288zM938 366v466c0 48-38 86-84 86h-684c-46 0-84-38-84-86v-488l-86-296v-26c0-48 38-86 86-86h852c48 0 86 38 86 86v20zM170 874h684c22 0 42-18 42-42v-470h-768v470c0 24 20 42 42 42zM122 320h786l66-256h-924zM938-22h-852c-24 0-44 20-44 44h940c0-24-20-44-44-44z" />
<glyph unicode="&#x5b;" d="M918 960h-300c-12 0-20-10-20-22v-980c0-12 8-22 20-22h300c12 0 20 10 20 22v980c0 12-8 22-20 22zM896-22h-256v128h86v44h-86v84h86v44h-86v84h86v44h-86v84h86v44h-86v84h86v44h-86v84h86v44h-86v128h256zM296 908c-8 12-28 12-36 0l-128-192c-2-4-4-8-4-12v-618c0-60 48-108 106-108h86c58 0 106 48 106 108v618c0 4 0 8-2 12zM278 626c6-6 12-12 20-16v-376h-42v376c8 4 16 10 22 16zM214 234h-44v376c14-8 28-12 44-12zM170 192h214v-42h-214zM342 234v364c14 0 30 4 42 12v-376zM278 858l30-48h-62zM170 698l48 70h120l46-70v-16c0-22-20-42-42-42-24 0-44 20-44 42 0 12-8 22-20 22s-22-10-22-22c0-22-20-42-42-42-24 0-44 20-44 42zM320 22h-86c-34 0-64 28-64 64v20h214v-20c0-36-28-64-64-64z" />
<glyph unicode="&#x5c;" d="M768-64h-512c-12 0-20 8-22 20l-40 536c-86 10-152 82-152 170 0 94 80 174 172 174 20 0 38-4 56-12 30 82 124 136 242 136 112 0 190-46 238-138 18 8 40 14 60 14 92 0 172-80 172-174 0-88-66-160-152-170l-40-536c-2-12-10-20-22-20zM276-22h472l42 536c0 10 10 20 20 20 72 0 128 56 128 128 0 76-68 130-128 130-20 0-40-6-58-16-6-4-12-6-18-4s-10 6-14 12c-40 92-106 134-208 134-110 0-194-52-208-128 0-8-6-14-12-16-6-4-14-2-20 2-18 10-38 16-58 16-60 0-128-54-128-130 0-72 56-128 128-128 10 0 20-10 20-20zM782 106h-540c-12 0-20 10-20 22s8 22 20 22h540c12 0 20-10 20-22s-8-22-20-22zM406 106c-12 0-22 10-22 22v170c0 12 10 22 22 22s20-10 20-22v-170c0-12-8-22-20-22zM512 106c-12 0-22 10-22 22v214c0 12 10 20 22 20s22-8 22-20v-214c0-12-10-22-22-22zM618 106c-12 0-20 10-20 22v170c0 12 8 22 20 22s22-10 22-22v-170c0-12-10-22-22-22z" />
<glyph unicode="&#x5d;" d="M14 790c0-48 38-86 86-86h64c34 0 66 18 84 44 20-26 52-44 86-44h64c48 0 86 38 86 86 12 0 20 8 20 20v44c0 12-8 20-20 20-2 0-6 0-8 0-16 50-64 86-120 86h-214c-56 0-104-36-120-86-4 0-6 0-8 0-12 0-22-8-22-20v-44c0-12 10-20 22-20zM440 832v-42c0-24-18-44-42-44h-64c-36 0-64 30-64 64v108h86c46 0 84-38 84-86zM56 832c0 48 40 86 86 86h86v-108c0-34-30-64-64-64h-64c-24 0-44 20-44 44zM932 562v78c0 12-10 22-22 22h-24c-10 48-52 84-104 84h-74c-76 0-140-62-140-138v-362c0-148-118-268-266-268-146 0-266 120-266 268v160c0 76 58 138 130 148 10-36 44-64 82-64 48 0 86 38 86 86s-38 86-86 86c-40 0-72-28-82-66-96-8-174-92-174-190v-160c0-172 140-310 310-310s310 138 310 310v362c0 52 42 96 96 96h74c28 0 52-18 60-42h-18c-10 0-20-10-20-22v-78c-50-24-86-76-86-136v-404c0-48 38-86 86-86h128c46 0 84 38 84 86v404c0 60-34 112-84 136zM248 618c24 0 44-18 44-42s-20-42-44-42c-22 0-42 18-42 42s20 42 42 42zM760 406h214v-342h-214zM846 576v42h42v-42zM868 534c52 0 94-38 104-86h-208c8 48 52 86 104 86zM932-22h-128c-24 0-44 20-44 44h214c0-24-18-44-42-44z" />
<glyph unicode="&#x5e;" d="M810 746h-192v172h64c12 0 22 8 22 20s-10 22-22 22h-298c-12 0-22-10-22-22s10-20 22-20h64v-172h-192c-12 0-22-8-22-20s10-22 22-22h106v-406c0-98 66-178 150-190v-150c0-12 10-22 22-22s20 10 20 22v150c84 12 150 92 150 190v406h106c12 0 22 10 22 22s-10 20-22 20zM490 918h86v-172h-86zM662 298c0-82-58-148-128-148-72 0-128 66-128 148v108h64c12 0 20 8 20 20s-8 22-20 22h-64v42h64c12 0 20 10 20 22s-8 22-20 22h-64v42h64c12 0 20 10 20 22s-8 20-20 20h-64v86h256z" />
<glyph unicode="&#x5f;" d="M662 874h-342c-36 0-64-28-64-64v-256c0-34 28-64 64-64h342c34 0 64 30 64 64v256c0 36-30 64-64 64zM682 554c0-12-8-20-20-20h-342c-12 0-22 8-22 20v256c0 12 10 22 22 22h342c12 0 20-10 20-22zM662 448h-128c-12 0-22-10-22-22s10-20 22-20h128c12 0 20 8 20 20s-8 22-20 22zM1018 58l-92 92c54 4 98 50 98 106 0 58-48 106-106 106h-108v448c0 84-66 150-148 150h-342c-82 0-150-66-150-150v-512c0-34 30-64 64-64h512c36 0 64 30 64 64v22h108c34 0 64-28 64-64s-30-64-64-64h-768c-6 0-12-2-16-6l-128-128c-2-2-4-4-4-8-2-2-2-4-2-8v-84c0-12 10-22 22-22h980c12 0 22 10 22 22v84c0 4 0 6-2 8 0 4-2 6-4 8zM768 298c0-12-10-20-22-20h-512c-12 0-20 8-20 20v512c0 60 48 108 106 108h342c58 0 106-48 106-108zM158 150h708l86-86h-880zM42-22v44h940v-44zM278 106c0-12-10-20-22-20s-22 8-22 20c0 12 10 22 22 22s22-10 22-22zM406 106c0-12-10-20-22-20s-22 8-22 20c0 12 10 22 22 22s22-10 22-22zM534 106c0-12-10-20-22-20s-22 8-22 20c0 12 10 22 22 22s22-10 22-22zM662 106c0-12-10-20-22-20s-22 8-22 20c0 12 10 22 22 22s22-10 22-22zM790 106c0-12-10-20-22-20s-22 8-22 20c0 12 10 22 22 22s22-10 22-22z" />
<glyph unicode="&#x60;" d="M938 874h-852c-48 0-86-40-86-88v-632c0-50 38-90 86-90h404v-42h-276c-12 0-22-10-22-22s10-22 22-22h596c12 0 22 10 22 22s-10 22-22 22h-276v42h404c48 0 86 40 86 90v632c0 48-38 88-86 88zM86 832h852c24 0 44-20 44-46v-508h-940v508c0 26 20 46 44 46zM938 106h-852c-24 0-44 22-44 48v80h940v-80c0-26-20-48-44-48zM554 170c0-22-18-42-42-42s-42 20-42 42c0 24 18 44 42 44s42-20 42-44z" />
<glyph unicode="&#x61;" d="M918 448c-28 0-56-8-78-20l32 212c12 80-12 162-64 224-52 60-130 96-210 96h-172c-80 0-158-36-210-96-52-62-76-144-64-224l32-212c-22 12-50 20-78 20-58 0-106-48-106-106 0-44 26-82 66-100 12-4 20-16 20-28v-86c0-82 66-150 148-150v-20c0-12 10-22 22-22s22 10 22 22v20h468v-20c0-12 10-22 22-22s22 10 22 22v20c82 0 148 68 148 150v86c0 12 8 24 20 28 40 18 66 56 66 100 0 58-48 106-106 106zM248 836c44 52 110 82 178 82h172c68 0 134-30 178-82s64-122 54-188l-40-258c-26-30-44-70-44-112v-32c-38 14-110 32-234 32s-196-18-234-32v32c0 42-18 82-44 112l-40 256c-10 68 10 138 54 190zM942 282c-28-12-46-38-46-68v-86c0-58-48-106-106-106h-556c-58 0-106 48-106 106v86c0 30-18 56-46 68-24 10-40 34-40 60 0 34 30 64 64 64 72 0 128-58 128-128v-104l34 22c0 0 64 38 244 38s244-38 244-38l34-22v104c0 70 56 128 128 128 34 0 64-30 64-64 0-26-16-50-40-60zM390 518c4-4 10-6 16-6 4 0 10 2 14 6l18 18c14-28 42-46 74-46s60 18 74 46l18-18c4-4 10-6 14-6 6 0 12 2 16 6 8 8 8 22 0 30l-28 28 28 28c8 8 8 22 0 30s-22 8-30 0l-18-18c-14 28-42 46-74 46s-60-18-74-46l-18 18c-8 8-22 8-30 0s-8-22 0-30l28-28-28-28c-8-8-8-22 0-30zM512 618c24 0 42-18 42-42 0 0 0 0 0 0 0-24-18-42-42-42s-42 18-42 42c0 0 0 0 0 0 0 24 18 42 42 42z" />
<glyph unicode="&#x62;" d="M918 810v108c0 0-322-100-186-262l-50-50c-68 60-156 98-256 98-212 0-384-172-384-384 0-98 38-188 98-256 0 0 0 0 0 0l-92-92c-8-8-8-22 0-30 6-4 10-6 16-6s10 2 16 6l90 92c0 0 0 0 0 0 68-60 158-98 256-98 100 0 188 38 256 98 0 0 0 0 2 0l90-92c4-4 10-6 16-6 4 0 10 2 14 6 8 8 8 22 0 30l-90 92c0 0-2 0-2 0 62 68 98 158 98 256s-36 188-98 256l50 50c28-24 54-34 80-34 114 0 182 218 182 218zM874 810v-12l-42-42v78c14 8 28 14 42 22zM742 746c6 20 24 40 48 60v-94l-28-26c-26 32-20 52-20 60zM768 320c0-188-154-342-342-342s-340 154-340 342c0 188 152 342 340 342 88 0 166-34 226-86l-60-60c-44 38-102 60-166 60-140 0-256-114-256-256s116-256 256-256c142 0 256 114 256 256 0 64-22 120-60 166l60 60c54-60 86-140 86-226zM512 320c0-48-38-86-86-86-46 0-84 38-84 86s38 86 84 86c16 0 32-6 44-12l-32-32c-4 0-8 0-12 0-22 0-42-18-42-42s20-42 42-42c24 0 44 18 44 42 0 4-2 8-2 10l32 34c8-14 12-28 12-44zM500 424c-20 16-46 24-74 24-70 0-128-58-128-128s58-128 128-128c72 0 128 58 128 128 0 28-8 54-24 74l62 60c30-36 48-82 48-134 0-118-96-214-214-214-116 0-212 96-212 214s96 214 212 214c52 0 98-18 136-48zM842 634c-16 0-32 8-50 22l112 112h58c-28-62-74-134-120-134z" />
<glyph unicode="&#x63;" d="M832 278h-42v174c24 8 42 32 42 60v256c0 58-48 106-106 106v64c0 12-10 22-22 22h-128c-12 0-22-10-22-22v-64h-128v64c0 12-8 22-20 22h-128c-12 0-22-10-22-22v-64c-58 0-106-48-106-106v-256c0-28 18-52 42-60v-174h-42c-48 0-86-38-86-86v-192c0-36 28-64 64-64h726c34 0 64 28 64 64v192c0 48-38 86-86 86zM874 192v-42h-84v84h42c24 0 42-18 42-42zM662 150h-44v20c0 12-8 22-20 22s-22-10-22-22v-20h-170v20c0 12-10 22-22 22s-22-10-22-22v-20h-42v42c0 24 20 42 42 42h256c24 0 44-18 44-42zM320 106h42v-20c0-12 10-22 22-22s22 10 22 22v20h170v-20c0-12 10-22 22-22s20 10 20 22v20h44v-128h-342zM704 128v64c0 48-38 86-86 86h-256c-46 0-84-38-84-86v-214h-44v470h44v-42c0-36 28-64 64-64 34 0 64 28 64 64v42h170v-42c0-36 28-64 64-64s64 28 64 64v42h42v-470h-42zM320 406v106c0 12 10 22 22 22s20-10 20-22v-106c0-12-8-22-20-22s-22 10-22 22zM618 406v106c0 12 10 22 22 22s22-10 22-22v-106c0-12-10-22-22-22s-22 10-22 22zM598 918h84v-44h-84zM298 918h86v-44h-86zM192 768c0 36 28 64 64 64h470c34 0 64-28 64-64v-256c0-12-10-22-22-22h-64v22c0 36-28 64-64 64s-64-28-64-64v-22h-170v22c0 36-30 64-64 64-36 0-64-28-64-64v-22h-64c-12 0-22 10-22 22zM106 192c0 24 20 42 44 42h42v-84h-86zM106 0v106h86v-128h-64c-12 0-22 10-22 22zM874 0c0-12-8-22-20-22h-64v128h84zM256 746h22v-20c0-12 8-22 20-22s22 10 22 22v20h406c12 0 20 10 20 22s-8 22-20 22h-470c-12 0-22-10-22-22s10-22 22-22z" />
<glyph unicode="&#x64;" d="M810 576h-64v150c0 128-104 234-234 234s-234-106-234-234v-150h-64c-118 0-214-96-214-214v-276c0-82 66-150 150-150h724c84 0 150 68 150 150v276c0 118-96 214-214 214zM320 726c0 106 86 192 192 192s192-86 192-192v-150h-384zM214 534h64v-64c0-12 8-22 20-22s22 10 22 22v64h384v-64c0-12 10-22 22-22s20 10 20 22v64h64c94 0 172-78 172-172v-172c-114-10-202-98-212-212h-516c-10 114-98 202-212 212v172c0 94 78 172 172 172zM42 86v62c90-10 160-80 170-170h-62c-60 0-108 48-108 108zM874-22h-62c10 90 80 160 170 170v-62c0-60-48-108-108-108zM106 320h64v-64c0-12 10-22 22-22s22 10 22 22v64h704c12 0 20 10 20 22s-8 20-20 20h-812c-12 0-20-8-20-20s8-22 20-22z" />
<glyph unicode="&#x65;" d="M470 384c0 12-10 22-22 22h-86c-12 0-20-10-20-22s8-22 20-22h86c12 0 22 10 22 22zM192 534h384c12 0 22 8 22 20s-10 22-22 22h-384c-12 0-22-10-22-22s10-20 22-20zM682 450c120 10 214 110 214 232s-94 224-214 234v22c0 12-8 22-20 22s-22-10-22-22v-448h-490c-12 0-22-8-22-20 0-106 60-198 148-246l-42-264c0-12 8-22 18-24 2 0 2 0 4 0 10 0 20 8 22 18l22 152h196v-8c-28-14-48-42-48-76 0-48 38-86 86-86 46 0 84 38 84 86 0 44-34 82-80 84l-4 118c82 44 140 128 148 226zM854 682c0-98-76-180-172-190v382c96-12 172-92 172-192zM172 448h468c-12-120-112-214-234-214s-224 94-234 214zM576 22c0-24-20-44-42-44-24 0-44 20-44 44 0 22 20 42 44 42 22 0 42-20 42-42zM494 150h-188l10 58c28-10 58-16 90-16 30 0 58 6 86 14z" />
<glyph unicode="&#x66;" d="M938 960h-788c-12 0-22-10-22-22v-426c0-12 10-22 22-22h64v-106h-22c-12 0-22-10-22-22v-20h-148c-12 0-22-10-22-22s10-22 22-22h148v-20c0-12 10-22 22-22h64v-22c0-12 10-20 22-20s20 8 20 20v22h64c12 0 22 10 22 22v84c0 12-10 22-22 22h-20v106h84v-384h-404c-12 0-22-8-22-20v-128c0-12 10-22 22-22h938c12 0 20 8 22 20l42 450v468c0 48-38 86-86 86zM342 298h-128v44h128zM298 384h-42v106h42zM42 64h406c12 0 22 10 22 22v426c0 12-10 22-22 22h-278v384h768c24 0 44-20 44-44v-128h-236c-12 0-20-8-20-20s8-22 20-22h236v-42h-236c-12 0-20-10-20-22s8-22 20-22h236v-42h-236c-12 0-20-10-20-22s8-20 20-20h236v-86h-192c-12 0-22-10-22-22v-448h-726zM940-22h-130v428h172zM298 874c-46 0-84-38-84-84 0-48 38-86 84-86 48 0 86 38 86 86 0 46-38 84-86 84zM298 746c-22 0-42 20-42 44 0 22 20 42 42 42 24 0 44-20 44-42 0-24-20-44-44-44z" />
<glyph unicode="&#x67;" d="M810 790c-34 0-64-30-64-64 0-36-28-64-64-64-34 0-64 28-64 64 0 70-56 128-128 128-70 0-128-58-128-128v-44h-64c-12 0-20-8-20-20v-60c-140-46-236-178-236-324 0-188 154-342 342-342s342 154 342 342c0 146-96 278-236 324v60c0 12-8 20-20 20h-64v44c0 46 38 84 84 84 48 0 86-38 86-84 0-60 48-108 106-108 60 0 108 48 108 108 0 12 8 20 20 20s22 10 22 22c0 12-10 22-22 22zM464 564c128-34 218-152 218-286 0-166-134-300-298-300s-298 134-298 300c0 134 90 252 218 286 10 4 16 12 16 22v54h128v-54c0-10 6-18 16-22zM810 960c-12 0-20-10-20-22v-84c0-12 8-22 20-22s22 10 22 22v84c0 12-10 22-22 22zM872 806c4 0 10 4 14 8l60 60c8 8 8 22 0 30s-22 8-30 0l-60-60c-8-8-8-22 0-30 4-4 10-8 16-8zM736 814c4-4 8-8 14-8s12 4 16 8c8 8 8 22 0 30l-60 60c-10 8-22 8-32 0-8-8-8-22 0-30zM982 790h-86c-12 0-22-10-22-22s10-22 22-22h86c12 0 20 10 20 22s-8 22-20 22zM886 722c-8 10-22 10-30 0-8-8-8-22 0-30l60-60c4-4 10-6 16-6 4 0 10 2 14 6 8 8 8 22 0 30zM238 488c-56-40-94-98-106-166-12-66 2-134 42-192 4-6 10-8 18-8 4 0 8 2 12 4 10 6 12 20 6 30-68 96-44 230 52 296 10 8 12 20 6 30-8 10-20 12-30 6z" />
<glyph unicode="&#x68;" d="M490-22h-340c-36 0-64 30-64 64v726c18-12 40-22 64-22h704v-256c0-12 8-20 20-20s22 8 22 20v300h-746c-36 0-64 28-64 64 0 34 28 64 64 64h724c12 0 22 8 22 20s-10 22-22 22h-724c-60 0-108-48-108-106v-812c0-58 48-106 108-106h340c12 0 22 10 22 22s-10 20-22 20zM726 448c-142 0-256-114-256-256s114-256 256-256c140 0 256 114 256 256s-116 256-256 256zM726-22c-118 0-214 96-214 214s96 214 214 214c116 0 212-96 212-214s-96-214-212-214zM796 186l-50-50v162c0 12-8 22-20 22s-22-10-22-22v-162l-48 50c-10 8-22 8-32 0-8-8-8-22 0-30l86-86c0 0 0 0 0 0l16-14 14 14c0 0 0 0 0 0l86 86c8 8 8 22 0 30s-22 8-30 0zM150 874h704v-42h-704z" />
<glyph unicode="&#x69;" d="M950 848c-6 4-14 6-20 2l-440-208-438 208c-6 4-14 2-20-2-6-2-10-10-10-18v-660c0-8 4-16 12-20l448-212c2-2 6-4 8-4 4 0 6 2 10 4l448 212c8 4 12 12 12 20v660c0 8-4 16-10 18zM64 798l406-194v-614l-406 194zM918 184l-406-194v614l406 194zM118 876l372-176 372 176c12 6 16 18 10 30-4 10-18 14-28 10l-354-170-352 170c-12 4-24 0-30-10-4-12 0-24 10-30z" />
<glyph unicode="&#x6a;" d="M918 832h-812c-58 0-106-48-106-106v-598c0-58 48-106 106-106h812c58 0 106 48 106 106v598c0 58-48 106-106 106zM106 790h812c34 0 64-30 64-64v-108h-940v108c0 34 30 64 64 64zM918 64h-812c-34 0-64 28-64 64v448h940v-448c0-36-30-64-64-64zM214 704c0-24-20-42-44-42-22 0-42 18-42 42s20 42 42 42c24 0 44-18 44-42zM342 704c0-24-20-42-44-42-22 0-42 18-42 42s20 42 42 42c24 0 44-18 44-42zM470 704c0-24-20-42-44-42-22 0-42 18-42 42s20 42 42 42c24 0 44-18 44-42z" />
<glyph unicode="&#x6b;" d="M938 448c0 48-38 86-84 86h-214c-8 0-14 2-18 8s-6 14-2 20c14 36 20 72 20 108v162c0 70-58 128-128 128s-128-58-128-128v-162c0-36 8-72 20-108 4-6 2-14-2-20s-10-8-18-8h-214c-46 0-84-38-84-86v-170h42v-320c0-12 10-22 22-22h106c8 0 16 4 20 12l44 90v-80c0-6 2-12 6-16s10-6 16-6h532c12 0 22 10 22 22v320h42zM854-22h-44v192c0 12-8 22-20 22s-22-10-22-22v-192h-42v150c0 12-10 22-22 22s-22-10-22-22v-150h-42v86c0 12-10 22-22 22s-20-10-20-22v-86h-236v150c0 10-6 18-16 20s-20-2-24-10l-80-160h-72v300h684zM896 320h-768v128c0 24 20 42 42 42h214c22 0 42 12 54 28 12 18 14 40 6 60-12 30-18 60-18 92v162c0 48 38 86 86 86s86-38 86-86v-162c0-32-6-62-18-92-8-20-6-42 6-60 12-16 32-28 54-28h214c22 0 42-18 42-42zM554 832c0-24-18-42-42-42s-42 18-42 42c0 24 18 42 42 42s42-18 42-42z" />
<glyph unicode="&#x6c;" d="M960 874h-896c-36 0-64-28-64-64v-554c0-36 28-64 64-64h64v-200l200 200h632c36 0 64 28 64 64v554c0 36-28 64-64 64zM982 256c0-12-10-22-22-22h-648l-142-140v140h-106c-12 0-22 10-22 22v554c0 12 10 22 22 22h896c12 0 22-10 22-22zM384 534c0-24-20-44-42-44-24 0-44 20-44 44 0 22 20 42 44 42 22 0 42-20 42-42zM726 534c0-24-20-44-44-44-22 0-42 20-42 44 0 22 20 42 42 42 24 0 44-20 44-42zM554 534c0-24-18-44-42-44s-42 20-42 44c0 22 18 42 42 42s42-20 42-42z" />
<glyph unicode="&#x6d;" d="M642 712c-48 0-100-22-130-72-28 48-80 70-128 70-74 0-150-54-150-160 0-184 256-332 268-338 2-2 6-4 10-4s8 2 12 4c10 8 266 180 266 350 0 98-74 150-148 150zM512 256c-50 30-234 154-234 294 0 82 56 118 106 118 42 0 96-24 106-96 2-10 12-18 22-18s20 8 22 18c10 72 64 98 108 98 50 0 104-34 104-108 0-130-186-272-234-306zM512 912c-282 0-512-188-512-422 0-110 50-212 142-290l-102-206c-6-8-4-18 2-24 4-4 10-6 16-6 4 0 6 0 10 2l274 126c54-14 112-22 170-22 282 0 512 188 512 420 0 234-230 422-512 422zM512 112c-58 0-112 8-166 24-4 2-10 2-14-2l-228-104 84 166c4 8 2 20-6 26-90 72-140 166-140 268 0 210 212 380 470 380s470-170 470-380c0-208-212-378-470-378z" />
<glyph unicode="&#x6e;" d="M882 716c-92 98-216 152-348 158v64c0 12-10 22-22 22s-22-10-22-22v-64c-132-6-256-60-348-158-98-102-148-234-142-376 2-12 10-20 22-20s22 10 22 22c0 0 0 24 18 42 14 14 36 22 66 22 88 0 106-68 108-70 2-10 10-16 20-16s18 6 20 16c0 0 18 70 108 70 80 0 102-56 106-68v-316c0-46 38-70 76-70 36 0 74 24 74 70 0 12-10 20-22 20s-20-8-20-20c0-26-30-28-32-28-4 0-32 2-32 28v314c8 16 44 70 106 70 70 0 108-74 108-74 4-8 12-12 20-12 0 0 0 0 0 0 8 0 16 4 20 12 0 0 38 74 108 74 66 0 84-66 86-70 2-10 10-16 20-16 0 0 2 0 2 0 10 2 18 10 20 20 6 142-44 274-142 376zM896 448c-64 0-106-40-128-68-22 28-64 68-128 68-60 0-102-36-124-64-22 32-64 64-132 64-66 0-106-30-128-60-22 30-62 60-128 60-32 0-60-8-82-22 14 98 58 188 126 262 90 92 210 144 340 144s250-52 340-144c70-76 114-170 126-270-20 18-46 30-82 30z" />
<glyph unicode="&#x6f;" d="M300 532c6 10 2 24-8 30-8 6-22 4-28-6l-86-132c-4 70 12 142 50 204 48 76 124 132 212 152 122 30 250-12 334-106 8-8 22-10 30-2 10 8 10 22 2 30-94 106-238 152-376 120-100-24-184-84-238-172-40-66-60-142-56-218l-94 108c-8 8-22 10-30 2s-10-22-2-30l140-162c0 0 0 0 0 0 2-2 4-2 6-4 0 0 0 0 2-2 2 0 4 0 8 0 0 0 0 0 0 0s0 0 2 0c0 0 0 0 0 0s2 0 2 0 4 0 4 2c2 0 2 0 4 0 2 2 4 4 4 6 2 0 2 0 2 0zM1016 324l-120 176c0 2 0 2 0 2-2 2-4 4-6 4 0 2-2 2-2 2-2 0-4 2-6 2 0 0-2 0-2 0s-2 0-4 0c0 0 0 0 0 0s0 0 0 0c-2 0-4-2-8-2 0 0 0 0 0 0-2-2-4-4-6-6l-136-164c-8-8-6-22 2-30 10-6 24-6 30 4l102 120c-8-150-112-280-262-316-116-28-234 6-320 90-8 8-22 8-30-2-8-8-8-20 0-30 74-72 170-110 270-110 30 0 60 4 90 10 164 40 280 180 294 344l78-118c4-6 12-10 18-10 4 0 8 2 12 4 10 6 12 20 6 30z" />
<glyph unicode="&#x70;" d="M938 704h-256v106c0 36-28 64-64 64h-212c-36 0-64-28-64-64v-106h-256c-48 0-86-38-86-86v-554c0-48 38-86 86-86h852c48 0 86 38 86 86v554c0 48-38 86-86 86zM406 832h212c12 0 22-10 22-22v-20h-256v20c0 12 10 22 22 22zM384 746h256v-42h-256zM982 64c0-24-20-42-44-42h-852c-24 0-44 18-44 42v554c0 24 20 44 44 44h852c24 0 44-20 44-44zM854 534h-704c-12 0-22-10-22-22s10-22 22-22h704c12 0 20 10 20 22s-8 22-20 22zM854 362h-704c-12 0-22-8-22-20s10-22 22-22h704c12 0 20 10 20 22s-8 20-20 20zM854 192h-704c-12 0-22-10-22-22s10-20 22-20h704c12 0 20 8 20 20s-8 22-20 22z" />
<glyph unicode="&#x71;" d="M918 278h-208c-140 96-76 238-24 354 22 48 40 84 40 114 0 140-108 212-214 212s-214-72-214-212c0-30 18-68 40-114 52-116 116-256-24-354h-208c-58 0-106-48-106-108v-128c0-12 10-20 22-20h20v-64c0-12 10-22 22-22h896c12 0 22 10 22 22v64h20c12 0 22 8 22 20v128c0 60-48 108-106 108zM938-22h-852v44h852zM982 64h-940v106c0 36 30 64 64 64h214c4 0 8 2 12 4 178 118 98 294 44 410-18 40-34 78-34 98 0 116 88 170 170 170s170-54 170-170c0-20-16-58-34-96-54-118-132-294 44-412 4-2 8-4 12-4h214c34 0 64-28 64-64z" />
<glyph unicode="&#x72;" d="M1002 960h-640c-12 0-20-10-20-22v-170c0-12 8-22 20-22s22 10 22 22v150h598v-342h-128c-6 0-12-2-16-6l-134-134v118c0 12-10 22-22 22h-84c-12 0-22-10-22-22s10-20 22-20h64v-150c0-8 4-16 12-20 4 0 6-2 8-2 6 0 12 2 16 6l164 166h140c12 0 22 8 22 20v384c0 12-10 22-22 22zM602 136l-156 56v72c50 40 80 106 80 182 0 122-84 224-188 224-106 0-190-102-190-224 0-80 34-150 88-188v-66l-154-56c-50-18-82-64-82-116v-84h682v84c0 52-32 98-80 116zM338 626c70 0 128-62 144-142-46-8-74 6-100 54l-20 34-18-34c-14-28-66-54-108-54-16 0-28 2-42 6 18 78 74 136 144 136zM190 446c0 0 0 2 0 2 14-4 30-6 46-6 46 0 96 20 126 50 26-36 58-54 98-54 8 0 16 2 24 2-2-96-68-176-146-176-82 0-148 82-148 182zM640-22h-598v42c0 34 22 64 54 76l182 66v72c18-8 38-12 60-12s46 6 66 16v-76l184-66c30-12 52-42 52-76zM810 726c0-12-8-22-20-22s-22 10-22 22c0 12 10 20 22 20s20-8 20-20zM704 726c0-12-10-22-22-22s-20 10-20 22c0 12 8 20 20 20s22-8 22-20zM598 726c0-12-10-22-22-22s-22 10-22 22c0 12 10 20 22 20s22-8 22-20z" />
<glyph unicode="&#x73;" d="M1006 22h-980c-12 0-22 8-22 20v300c0 34 28 64 64 64h42c12 0 22-10 22-22 0-14 56-42 128-42 88 0 128 24 128 42 0 6 4 14 8 18 6 4 14 4 20 2l570-204c24-8 42-32 42-60v-98c0-12-10-20-22-20zM46 64h940v76c0 10-6 18-16 20l-546 196c-20-36-80-58-164-58-70 0-146 24-166 64h-26c-12 0-22-8-22-20zM26 150h980v-44h-980zM474 278c-6 0-12 2-16 6-8 8-8 22 0 30l46 46c8 8 22 8 30 0s8-22 0-30l-46-46c-4-4-10-6-14-6zM558 256c-6 0-10 2-14 6-10 8-10 22 0 30l38 40c8 8 22 8 30 0 10-8 10-22 0-30l-38-40c-4-4-10-6-16-6zM538 128h-44v22c0 46 38 84 86 84h128c10 0 22 16 22 28h42c0-34-26-70-64-70h-128c-24 0-42-20-42-42zM154 106c-12 0-22 10-22 22 0 58-48 106-106 106-12 0-22 10-22 22s10 22 22 22c82 0 148-68 148-150 0-12-10-22-20-22zM622 490c-2 0-4 2-6 2l-570 204c-26 8-42 32-42 60v98c0 12 10 20 22 20h980c12 0 22-8 22-20v-300c0-34-28-64-64-64h-42c-12 0-22 10-22 22 0 14-56 42-128 42-88 0-128-24-128-42 0-6-4-14-10-18-2-2-8-4-12-4zM938 534h26c12 0 22 8 22 20v278h-940v-76c0-10 6-18 14-20l548-196c20 36 80 58 164 58 70 0 146-24 166-64zM26 790h980v-44h-980zM512 530c-4 0-10 2-14 6-8 8-8 22 0 30l46 46c8 8 22 8 30 0s8-22 0-30l-46-46c-4-4-10-6-16-6zM434 558c-6 0-12 2-16 6-8 8-8 22 0 30l40 40c8 8 22 8 30 0s8-22 0-30l-40-40c-4-4-8-6-14-6zM302 634h-42c0 34 26 70 64 70h128c24 0 42 20 42 42v22h44v-22c0-46-40-84-86-84h-128c-10 0-22-16-22-28zM1006 618c-82 0-148 68-148 150 0 12 8 22 20 22s22-10 22-22c0-58 48-106 106-106 12 0 22-10 22-22s-10-22-22-22z" />
<glyph unicode="&#x74;" d="M956 124l-180 182 30 30c8 8 8 22 0 30s-22 8-30 0l-76-76-112 112 140 142c20-8 40-10 62-10 50 0 98 20 136 56 54 56 70 138 40 210-2 6-8 12-16 12-6 2-14 0-18-6l-76-74h-60v60l74 76c6 4 8 12 6 18 0 8-6 14-12 16-24 10-48 16-74 16-52 0-100-20-136-56-52-54-70-128-46-198l-142-140-220 222 14 14c4 4 6 10 6 16 0 4-2 10-6 14l-120 122c-8 8-22 8-30 0l-62-62c-4-4-6-8-6-14s2-12 6-16l122-120c4-4 10-6 14-6 6 0 12 2 16 6l14 14 222-220-140-142c-20 8-40 10-62 10-50 0-98-20-136-56-54-56-70-138-40-210 2-6 8-12 16-12 6-2 14 0 18 4l76 76h60v-60l-76-76c-4-4-6-12-4-18 0-8 6-14 12-16 24-10 48-16 74-16 52 0 100 20 136 56 52 52 70 128 46 198l142 140 112-112-76-76c-8-8-8-22 0-30 4-4 10-6 16-6 4 0 10 2 14 6l30 30 182-180c16-16 38-26 60-26s44 10 60 26c16 16 26 38 26 60s-10 44-26 60zM184 746l-90 90 30 30 90-90zM372 228c24-56 12-120-32-164-28-28-66-42-106-42-8 0-18 0-26 2l56 56c4 4 8 10 8 16v90c0 12-10 20-22 20h-90c-6 0-12-2-16-6l-56-56c-8 48 6 96 42 132 28 28 64 44 104 44 20 0 40-4 58-12 8-4 18-2 24 4l332 332c6 6 8 14 4 22-24 58-12 122 32 164 28 28 66 44 106 44 8 0 16 0 26-2l-56-56c-4-4-8-10-8-16v-90c0-12 10-22 22-22h90c6 0 12 4 16 8l56 56c8-48-6-98-42-132-28-28-64-44-104-44-20 0-40 4-58 12-8 4-18 2-24-4l-332-332c-6-6-8-16-4-24zM926 34c-16-16-44-16-60 0l-182 180 62 62 180-182c8-8 12-18 12-30s-4-22-12-30z" />
<glyph unicode="&#x75;" d="M960 554h-80c-8 28-18 54-32 80l56 56c12 12 18 28 18 44 0 18-6 34-18 46l-60 60c-24 24-66 24-90 0l-56-56c-26 14-52 24-80 32v80c0 36-28 64-64 64h-84c-36 0-64-28-64-64v-80c-28-8-54-18-80-32l-56 56c-24 24-66 24-90 0l-60-60c-26-26-26-66 0-90l56-56c-14-26-24-52-32-80h-80c-18 0-34-6-46-18s-18-28-18-46v-84c0-36 28-64 64-64h80c8-28 18-54 32-80l-56-56c-12-12-20-28-20-44 0-18 8-34 20-46l60-60c24-24 66-24 90 0l56 56c26-14 52-24 80-32v-80c0-36 28-64 64-64h84c36 0 64 28 64 64v80c28 8 54 18 80 32l56-56c24-24 66-24 90 0l60 60c26 26 26 66 0 90l-56 56c14 26 24 52 32 80h80c18 0 34 6 46 18s18 28 18 46v84c0 36-28 64-64 64zM982 406c0-6-2-12-6-16s-10-6-16-6h-96c-10 0-18-6-20-16-8-34-22-68-40-98-6-8-4-18 2-26l68-68c8-8 8-22 0-30l-60-60c-8-8-22-8-30 0l-68 68c-8 6-18 8-26 2-30-18-64-32-98-40-10-2-16-10-16-20v-96c0-12-10-22-22-22h-84c-12 0-22 10-22 22v96c0 10-6 18-16 20-34 8-68 22-98 40-2 4-6 4-10 4-6 0-12-2-16-6l-68-68c-8-8-22-8-30 0l-60 60c-4 4-6 10-6 16 0 4 2 10 6 14l68 68c6 8 8 18 2 26-18 30-32 64-40 98-2 10-10 16-20 16h-96c-12 0-22 10-22 22v84c0 6 2 12 6 16s10 6 16 6h96c10 0 18 6 20 16 8 34 22 68 40 98 6 8 4 18-2 26l-68 68c-8 8-8 22 0 30l60 60c8 8 22 8 30 0l68-68c8-6 18-8 26-2 30 18 64 32 98 40 10 2 16 10 16 20v96c0 12 10 22 22 22h84c12 0 22-10 22-22v-96c0-10 6-18 16-20 34-8 68-22 98-40 8-6 18-4 26 2l68 68c8 8 22 8 30 0l60-60c4-4 6-10 6-16 0-4-2-10-6-14l-68-68c-6-8-8-18-2-26 18-30 32-64 40-98 2-10 10-16 20-16h96c12 0 22-10 22-22zM512 662c-118 0-214-96-214-214s96-214 214-214c118 0 214 96 214 214s-96 214-214 214zM512 278c-94 0-170 76-170 170s76 170 170 170c94 0 170-76 170-170s-76-170-170-170z" />
<glyph unicode="&#x76;" d="M938 960h-852c-48 0-86-38-86-86v-852c0-48 38-86 86-86h852c48 0 86 38 86 86v852c0 48-38 86-86 86zM982 22c0-24-20-44-44-44h-852c-24 0-44 20-44 44v852c0 24 20 44 44 44h852c24 0 44-20 44-44zM790 534h-44v276c0 12-8 22-20 22s-22-10-22-22v-276h-42c-12 0-22-10-22-22v-86c0-12 10-20 22-20h42v-64c0-12 10-22 22-22s20 10 20 22v64h44c12 0 20 8 20 20v86c0 12-8 22-20 22zM768 448h-86v42h86zM576 746h-42v64c0 12-10 22-22 22s-22-10-22-22v-64h-42c-12 0-22-8-22-20v-86c0-12 10-22 22-22h42v-276c0-12 10-22 22-22s22 10 22 22v276h42c12 0 22 10 22 22v86c0 12-10 20-22 20zM554 662h-84v42h84zM362 618h-42v192c0 12-10 22-22 22s-20-10-20-22v-192h-44c-12 0-20-8-20-20v-86c0-12 8-22 20-22h44v-148c0-12 8-22 20-22s22 10 22 22v148h42c12 0 22 10 22 22v86c0 12-10 20-22 20zM342 534h-86v42h86zM726 234c-48 0-86-38-86-84 0-48 38-86 86-86 46 0 84 38 84 86 0 46-38 84-84 84zM726 106c-24 0-44 20-44 44 0 22 20 42 44 42 22 0 42-20 42-42 0-24-20-44-42-44zM512 234c-48 0-86-38-86-84 0-48 38-86 86-86s86 38 86 86c0 46-38 84-86 84zM512 106c-24 0-42 20-42 44 0 22 18 42 42 42s42-20 42-42c0-24-18-44-42-44zM298 234c-46 0-84-38-84-84 0-48 38-86 84-86 48 0 86 38 86 86 0 46-38 84-86 84zM298 106c-22 0-42 20-42 44 0 22 20 42 42 42 24 0 44-20 44-42 0-24-20-44-44-44z" />
<glyph unicode="&#x77;" d="M662 790h-300v-214h300zM618 618h-212v128h212zM896 854h-22v106h-768v-170h-42v-44h42v-84h-42v-44h42v-84h-42v-44h42v-84h-42v-44h42v-84h-42v-44h42v-84h-42v-44h42v-170h768v192h22c48 0 86 38 86 86v554c0 48-38 86-86 86zM896 810c24 0 42-18 42-42v-86h-64v128zM874 512v128h64v-128zM938 470v-128h-64v128zM832-22h-682v128h42v44h-42v84h42v44h-42v84h42v44h-42v84h42v44h-42v84h42v44h-42v84h42v44h-42v128h682zM896 170h-22v128h64v-84c0-24-18-44-42-44z" />
<glyph unicode="&#x78;" d="M960 490c0 52-36 96-86 106v44c0 176-142 320-320 320h-128c-176 0-320-144-320-320v-44c-48-10-84-54-84-106 0-50 36-94 84-104v-332c0-82 200-118 384-118 186 0 384 36 384 118v332c50 10 86 54 86 104zM426 918h128c136 0 250-100 274-228-70 38-208 56-338 56s-266-18-336-56c24 128 136 228 272 228zM490 704c222 0 342-50 342-74 0-26-120-76-342-76-220 0-340 50-340 76 0 24 120 74 340 74zM64 490c0 28 18 52 42 62v-122c-24 10-42 32-42 60zM832 54c0-26-120-76-342-76-220 0-340 50-340 76v518c68-40 208-60 340-60 134 0 274 20 342 60zM874 430v122c26-10 44-34 44-62s-18-50-44-60zM762 460c-12-4-26-8-42-12l-16-2v-190c0-36-28-64-64-64-16 0-34 6-46 18s-18 28-18 46c0 42 0 86 0 118v52h-128v-84c0-24-20-44-42-44-24 0-44 20-44 44v94l-20 2c-44 2-86 10-122 20-12 4-24-2-28-14-2-10 4-22 14-26 34-10 74-18 114-22v-54c0-48 38-86 86-86 46 0 84 38 84 86v42h44v-10c0-32 0-76 0-118 0-28 10-56 30-76s48-30 76-30c58 0 106 48 106 106v156c10 2 20 4 28 8 12 2 18 14 14 26s-14 18-26 14z" />
<glyph unicode="&#x79;" d="M534 938c-248 0-448-230-448-512 0-352 298-470 434-470v0c30 0 68 4 88 28 10 12 14 26 10 42-22 106-4 174 18 202 8 10 16 14 26 14 18 0 42-18 62-50 28-40 60-60 92-60 102 0 166 194 166 294 0 298-190 512-448 512zM816 174c-22 0-42 24-56 44-38 54-74 66-98 66-22 0-44-10-60-30-36-44-46-134-26-236 2-4 0-6 0-6-6-6-24-14-56-14v0c-122 0-392 108-392 428 0 260 182 470 406 470 234 0 404-198 404-470 0-102-64-252-122-252zM406 298c-60 0-108-48-108-106s48-106 108-106c58 0 106 48 106 106s-48 106-106 106zM406 128c-36 0-64 28-64 64s28 64 64 64c34 0 64-28 64-64s-30-64-64-64zM362 470c0 22-8 44-24 60s-38 24-60 24c-24 0-44-8-60-24-18-16-26-38-26-60 0-48 38-86 86-86 0 0 0 0 0 0 22 0 44 8 60 26 16 16 24 36 24 60zM308 440c-8-8-20-14-30-14v0c-24 0-44 20-44 44 0 10 6 22 14 30s18 12 30 12c10 0 22-4 30-12s12-20 12-30c0-12-4-22-12-30zM384 576c0 0 0 0 0 0 22 0 44 8 60 26 16 16 26 36 26 60 0 22-10 44-26 60s-38 24-60 24c-22 0-44-8-60-24s-26-38-26-60c0-48 38-86 86-86zM354 692c8 8 18 12 30 12s22-4 30-12c8-8 12-20 12-30 0-12-4-22-12-30s-18-14-30-14v0c-24 0-42 20-42 44 0 10 4 22 12 30zM576 832c-22 0-44-8-60-26-16-16-26-36-26-60 0-46 38-84 86-84 0 0 0 0 0 0 22 0 44 8 60 24s26 38 26 60c0 24-10 44-26 60-16 18-38 26-60 26zM606 716c-8-8-18-12-30-12v0c-24 0-42 20-42 42 0 12 4 22 12 30s18 14 30 14c12 0 22-6 30-14s12-18 12-30c0-10-4-22-12-30zM768 682c-22 0-44-8-60-24s-26-38-26-60c0-48 38-86 86-86 0 0 0 0 0 0 22 0 44 8 60 26 16 16 26 36 26 60 0 22-10 44-26 60s-38 24-60 24zM798 568c-8-8-18-14-30-14v0c-24 0-42 20-42 44 0 10 4 22 12 30s18 12 30 12c12 0 22-4 30-12s12-20 12-30c0-12-4-22-12-30z" />
<glyph unicode="&#x7a;" d="M896 790h-42v42c0 48-38 86-86 86h-512c-48 0-86-38-86-86v-42c-54 0-84-32-84-86v-86c0-54 30-84 84-84h320c12 0 22-10 22-22v-174c-40-8-64-46-64-104v-234c0-36 28-64 64-64h42c36 0 64 28 64 64v234c0 58-22 96-64 104v174c0 36-28 64-64 64h-320c-30 0-42 12-42 42v86c0 30 12 42 42 42v-42c0-48 38-86 86-86h512c48 0 86 38 86 86v42h42zM576 234v-234c0-12-10-22-22-22h-42c-12 0-22 10-22 22v234c0 64 32 64 44 64 10 0 42 0 42-64zM810 704c0-24-18-42-42-42h-512c-24 0-42 18-42 42v128c0 24 18 42 42 42h512c24 0 42-18 42-42z" />
<glyph unicode="&#x7b;" d="M938 874h-852c-48 0-86-40-86-88v-632c0-50 38-90 86-90h404v-42h-276c-12 0-22-10-22-22s10-22 22-22h596c12 0 22 10 22 22s-10 22-22 22h-276v42h404c48 0 86 40 86 90v632c0 48-38 88-86 88zM86 832h852c24 0 44-20 44-46v-508h-940v508c0 26 20 46 44 46zM938 106h-852c-24 0-44 22-44 48v80h940v-80c0-26-20-48-44-48zM554 170c0-22-18-42-42-42s-42 20-42 42c0 24 18 44 42 44s42-20 42-44z" />
<glyph unicode="&#x7c;" d="M746-64h-512c-10 0-20 8-20 20l-44 682c0 6 2 12 6 16s10 8 16 8h598c6 0 10-4 14-8s6-10 6-16l-42-682c0-12-10-20-22-20zM254-22h472l40 640h-552zM832 618h-682c-12 0-22 10-22 22v170c0 12 10 22 22 22h682c12 0 22-10 22-22v-170c0-12-10-22-22-22zM170 662h640v128h-640zM790 790c0 0 0 0 0 0h-598c-6 0-14 2-18 8s-4 12-2 20l42 128c4 8 12 14 20 14h512c10 0 18-6 20-14l42-124c2-4 4-8 4-12 0-12-10-20-22-20zM222 832h538l-28 86h-482zM778 448h-576c-12 0-20 10-20 22s8 20 20 20h576c12 0 22-8 22-20s-10-22-22-22zM218 234h544v-42h-544zM554 320h-128c-12 0-20 10-20 22s8 20 20 20h128c12 0 22-8 22-20s-10-22-22-22z" />
<glyph unicode="&#x7d;" d="M534 320c-6 0-12 2-16 6l-342 342c-6 6-8 14-4 22s12 14 20 14h682c10 0 18-6 20-14 4-8 2-16-4-22l-342-342c-4-4-10-6-14-6zM244 662l290-290 290 290zM534-64c-12 0-22 10-22 22v384c0 12 10 20 22 20s20-8 20-20v-384c0-12-8-22-20-22zM704-64h-342c-12 0-20 10-20 22s8 20 20 20h342c12 0 22-8 22-20s-10-22-22-22zM304 668l-110 112c-22 20-48 30-76 30h-118v44h118c40 0 78-16 106-44l112-112zM874 576c-26 0-54 8-78 22l24 36c16-10 34-16 54-16 60 0 108 48 108 108 0 58-48 106-108 106-58 0-106-48-106-106 0-12 2-24 6-36l-40-14c-6 16-8 32-8 50 0 82 66 148 148 148s150-66 150-148c0-82-68-150-150-150z" />
<glyph unicode="&#x7e;" d="M896 960h-768c-70 0-128-58-128-128v-768c0-70 58-128 128-128h768c70 0 128 58 128 128v768c0 70-58 128-128 128zM982 64c0-48-38-86-86-86h-768c-48 0-86 38-86 86v768c0 48 38 86 86 86h768c48 0 86-38 86-86zM512 832c-212 0-384-172-384-384s172-384 384-384c212 0 384 172 384 384s-172 384-384 384zM512 106c-188 0-342 154-342 342s154 342 342 342c188 0 342-154 342-342s-154-342-342-342zM640 470h-106v192c0 12-10 20-22 20s-22-8-22-20v-236h150c12 0 22 10 22 22s-10 22-22 22z" />
<glyph unicode="&#xe000;" d="M810 278h-596c-118 0-214 96-214 212 0 12 10 22 22 22s20-10 20-22c0-94 78-170 172-170h596c94 0 172 76 172 170 0 12 8 22 20 22s22-10 22-22c0-116-96-212-214-212zM832 406h-640c-12 0-22 8-22 20s10 22 22 22h640c12 0 22-10 22-22s-10-20-22-20zM854 300h-44v318c0 166-134 300-298 300s-298-134-298-300v-318h-44v318c0 188 154 342 342 342s342-154 342-342zM576 22h-128l-42-86h212z" />
<glyph unicode="&#xe001;" d="M554 426h-298c-48 0-86-38-86-84 0-48 38-86 86-86s86 38 86 86c0 14-6 30-12 42h152c-8-12-12-28-12-42 0-48 38-86 84-86 48 0 86 38 86 86 0 46-38 84-86 84zM298 342c0-24-18-44-42-44s-42 20-42 44c0 22 18 42 42 42s42-20 42-42zM554 298c-22 0-42 20-42 44 0 22 20 42 42 42 24 0 44-20 44-42 0-24-20-44-44-44zM1004 514c-12 8-28 10-42 4l-194-80v116c0 36-28 64-64 64h-22v108c0 12 10 20 22 20h68c8-24 32-42 60-42h128c36 0 64 28 64 64s-28 64-64 64h-128c-28 0-52-18-60-42h-68c-36 0-64-30-64-64v-108h-128v64c0 36-28 64-64 64h-426c-12 0-22-8-22-20s10-22 22-22h426c12 0 22-10 22-22v-64h-364c-34 0-64-28-64-64v-384c0-34 30-64 64-64h598c36 0 64 30 64 64v76l194-82c6-2 12-4 18-4 8 0 16 4 24 8 12 8 20 22 20 38v272c0 14-8 28-20 36zM832 790h128c12 0 22-10 22-22s-10-22-22-22h-128c-12 0-22 10-22 22s10 22 22 22zM704 150h-598c-12 0-20 8-20 20v384c0 12 8 22 20 22h598c12 0 22-10 22-22v-148c0 0 0 0 0 0v-128c0 0 0 0 0 0v-108c0-12-10-20-22-20zM982 206l-2-2-212 88v100l212 88-10 18 12-20z" />
<glyph unicode="&#xe002;" d="M192 320c-58 0-106-48-106-106 0-60 48-108 106-108s106 48 106 108c0 58-48 106-106 106zM192 150c-36 0-64 28-64 64 0 34 28 64 64 64s64-30 64-64c0-36-28-64-64-64zM442 130c10-4 22 2 26 12l38 114h54l38-114c4-8 12-14 20-14 2 0 6 0 8 2 10 2 16 14 12 26l-42 128c-2 8-10 14-20 14h-86c-8 0-16-6-20-14l-42-128c-4-12 2-24 14-26zM342 832h42v-214h-42zM426 832h44v-214h-44zM512 832h42v-214h-42zM598 832h42v-214h-42zM682 832h44v-214h-44zM768 150h170v128h-170zM810 234h86v-42h-86zM874 406h-148v42h-44v86h22c58 0 106 48 106 106v278h-554v-278c0-58 48-106 106-106h22v-86h-42v-42h-192c-84 0-150-68-150-150v-86c0-82 66-148 150-148h192v-44h384v44h148c84 0 150 66 150 148v86c0 82-66 150-150 150zM298 640v234h470v-234c0-36-28-64-64-64h-342c-34 0-64 28-64 64zM426 534h214v-86h-214zM150 64c-60 0-108 48-108 106v86c0 58 48 106 108 106h192v-298zM682 22h-298v384h298zM982 170c0-58-48-106-108-106h-148v298h148c60 0 108-48 108-106z" />
<glyph unicode="&#xe003;" d="M938 476v334c0 84-66 150-148 150h-556c-82 0-148-66-148-150v-334l-86-150v-112c0-48 38-86 86-86h104c-16-48-46-104-98-156l-36-36h920l-46 38c-54 46-84 104-100 154h108c48 0 86 38 86 86v112zM896 810v-320h-320v82c50 24 84 74 84 132s-34 108-84 132v82h214c58 0 106-48 106-108zM512 852c-8 0-14-2-22-2v68h44v-68c-8 0-14 2-22 2zM512 812c60 0 108-48 108-108s-48-108-108-108c-60 0-108 48-108 108s48 108 108 108zM512 556c8 0 14 2 22 2v-68h-44v68c8 0 14-2 22-2zM234 918h214v-82c-50-24-84-74-84-132s34-108 84-132v-82h-320v320c0 60 48 108 106 108zM120 448h784l62-108h-908zM254 214h516c2-30 10-88 40-150h-600c32 64 42 120 44 150zM154-22c12 14 22 30 32 44h648c8-16 18-30 32-44zM938 170h-120c-2 18-4 32-6 44h126v42h-852v-42h126c-2-12-4-26-8-44h-118c-24 0-44 20-44 44v84h940v-84c0-24-20-44-44-44zM246 532c16 0 32 14 32 32s-16 32-32 32c-18 0-32-14-32-32s14-32 32-32zM246 574c6 0 10-4 10-10s-4-10-10-10c-6 0-12 4-12 10s6 10 12 10zM854 852h-150v-128h150zM810 766h-64v44h64z" />
<glyph unicode="&#xe004;" d="M432 624c2-2 6-2 8-4 2 0 6-2 8-2s6 2 8 2c2 2 6 2 8 4l128 128c8 10 8 22 0 32-10 8-22 8-32 0l-90-92v246c0 12-10 22-22 22s-22-10-22-22v-246l-90 92c-10 8-22 8-32 0-8-10-8-22 0-32zM1002 832h-148c-10 0-20-6-22-16l-56-240h-754c-8 0-14-4-18-8-4-6-6-14-2-20l128-384c2-8 10-14 20-14h526l-10-44h-452c-48 0-86-38-86-84 0-48 38-86 86-86 46 0 84 38 84 86 0 14-4 30-12 42h324c-8-12-12-28-12-42 0-48 38-86 84-86 48 0 86 38 86 86 0 38-26 70-60 80l14 58c2 4 4 6 4 10 0 2 0 2 0 2l144 618h132c12 0 22 8 22 20s-10 22-22 22zM164 192l-114 342h716l-80-342zM256 22c0-24-20-44-42-44-24 0-44 20-44 44 0 22 20 42 44 42 22 0 42-20 42-42zM726 22c0-24-20-44-44-44-22 0-42 20-42 44 0 22 20 42 42 42 24 0 44-20 44-42z" />
<glyph unicode="&#xe005;" d="M336 796l90 92v-248c0-12 10-22 22-22s22 10 22 22v248l90-92c6-4 10-6 16-6s10 2 16 6c8 8 8 22 0 30l-128 128c-2 2-6 4-8 4-6 2-10 2-16 0-2 0-6-2-8-4l-128-128c-8-8-8-22 0-30 10-8 22-8 32 0zM1002 832h-148c-10 0-20-6-22-16l-56-240h-754c-8 0-14-4-18-8-4-6-6-14-2-20l128-384c2-8 10-14 20-14h526l-10-44h-452c-48 0-86-38-86-84 0-48 38-86 86-86 46 0 84 38 84 86 0 14-4 30-12 42h324c-8-12-12-28-12-42 0-48 38-86 84-86 48 0 86 38 86 86 0 38-26 70-60 80l14 58c2 4 4 6 4 10 0 2 0 2 0 2l144 618h132c12 0 22 8 22 20s-10 22-22 22zM164 192l-114 342h716l-80-342zM256 22c0-24-20-44-42-44-24 0-44 20-44 44 0 22 20 42 44 42 22 0 42-20 42-42zM726 22c0-24-20-44-44-44-22 0-42 20-42 44 0 22 20 42 42 42 24 0 44-20 44-42z" />
<glyph unicode="&#xe006;" d="M48-64h448c8.832 0 16 7.168 16 16s-7.168 16-16 16h-448c-8.832 0-16 7.168-16 16v928c0 8.832 7.168 16 16 16h672c8.832 0 16-7.168 16-16v-160c0-8.832 7.168-16 16-16s16 7.168 16 16v160c0 26.464-21.536 48-48 48h-672c-26.464 0-48-21.536-48-48v-928c0-26.464 21.536-48 48-48zM576 624v-640c0-26.464 21.536-48 48-48h352c26.464 0 48 21.536 48 48v640c0 26.464-21.536 48-48 48h-352c-26.464 0-48-21.536-48-48zM992 624v-640c0-8.832-7.168-16-16-16h-352c-8.832 0-16 7.168-16 16v640c0 8.832 7.168 16 16 16h352c8.832 0 16-7.168 16-16zM352 64c0-17.673 14.327-32 32-32s32 14.327 32 32c0 17.673-14.327 32-32 32s-32-14.327-32-32zM768 64c0-17.673 14.327-32 32-32s32 14.327 32 32c0 17.673-14.327 32-32 32s-32-14.327-32-32z" />
<glyph unicode="&#xe007;" d="M112 128c8.832 0 16 7.168 16 16v752c0 19.136 12.864 32 32 32h1024c18.24 0 32-14.976 32-34.848v-749.152c0-8.832 7.168-16 16-16s16 7.168 16 16v749.152c0 37.504-28.096 66.848-64 66.848h-1024c-37.088 0-64-26.912-64-64v-752c0-8.832 7.168-16 16-16zM208 864c-8.832 0-16-7.168-16-16v-704c0-8.832 7.168-16 16-16h928c8.832 0 16 7.168 16 16v704c0 8.832-7.168 16-16 16h-928zM1120 160h-896v672h896v-672zM1328 64h-1312c-8.832 0-16-7.168-16-16v-37.6c0-38.336 45.056-74.4 80-74.4h1184c36.64 0 80 43.36 80 80v32c0 8.832-7.168 16-16 16zM1312 16c0-18.848-29.152-48-48-48h-1184c-20.192 0-48 24.576-48 42.4v21.6h1280v-16z" horiz-adv-x="1344" />
<glyph unicode="&#xe008;" d="M48 160h560v-48c0-8.832 7.168-16 16-16s16 7.168 16 16v48h560c26.464 0 48 21.536 48 48v704c0 26.464-21.536 48-48 48h-1152c-26.464 0-48-21.536-48-48v-704c0-26.464 21.536-48 48-48zM32 912c0 8.832 7.168 16 16 16h1152c8.832 0 16-7.168 16-16v-704c0-8.832-7.168-16-16-16h-1152c-8.832 0-16 7.168-16 16v704zM112 256h1024c8.832 0 16 7.168 16 16v576c0 8.832-7.168 16-16 16h-1024c-8.832 0-16-7.168-16-16v-576c0-8.832 7.168-16 16-16zM128 832h992v-544h-992v544zM448 64c-36.48 0-64-27.52-64-64v-48c0-8.832 7.168-16 16-16h448c8.832 0 16 7.168 16 16v45.6c0 37.216-28.096 66.4-64 66.4h-352zM832-2.4v-29.6h-416v32c0 18.848 13.152 32 32 32h352c18.24 0 32-14.784 32-34.4z" horiz-adv-x="1248" />
<glyph unicode="&#xe009;" d="M48-64h704c26.464 0 48 21.536 48 48v928c0 26.464-21.536 48-48 48h-704c-26.464 0-48-21.536-48-48v-928c0-26.464 21.536-48 48-48zM32 912c0 8.832 7.168 16 16 16h704c8.832 0 16-7.168 16-16v-928c0-8.832-7.168-16-16-16h-704c-8.832 0-16 7.168-16 16v928zM112 96h576c8.832 0 16 7.168 16 16v736c0 8.832-7.168 16-16 16h-576c-8.832 0-16-7.168-16-16v-736c0-8.832 7.168-16 16-16zM128 832h544v-704h-544v704zM384 32c0-17.673 14.327-32 32-32s32 14.327 32 32c0 17.673-14.327 32-32 32s-32-14.327-32-32z" horiz-adv-x="800" />
<glyph unicode="&#xe00a;" d="M48-64h512c26.464 0 48 21.536 48 48v928c0 26.464-21.536 48-48 48h-512c-26.464 0-48-21.536-48-48v-928c0-26.464 21.536-48 48-48zM32 912c0 8.832 7.168 16 16 16h512c8.832 0 16-7.168 16-16v-928c0-8.832-7.168-16-16-16h-512c-8.832 0-16 7.168-16 16v928zM80 96h448c8.832 0 16 7.168 16 16v672c0 8.832-7.168 16-16 16h-448c-8.832 0-16-7.168-16-16v-672c0-8.832 7.168-16 16-16zM96 768h416v-640h-416v640zM288 32c0-17.673 14.327-32 32-32s32 14.327 32 32c0 17.673-14.327 32-32 32s-32-14.327-32-32zM240 832h128c8.832 0 16 7.168 16 16s-7.168 16-16 16h-128c-8.832 0-16-7.168-16-16s7.168-16 16-16z" horiz-adv-x="608" />
<glyph unicode="&#xe00b;" d="M48-64h672c26.464 0 48 21.536 48 48v672c0 0.544-0.256 0.992-0.288 1.504-0.064 0.736-0.256 1.376-0.416 2.080-0.544 2.272-1.472 4.32-2.88 6.112-0.224 0.288-0.192 0.64-0.416 0.928l-256 288c-0.096 0.096-0.224 0.096-0.32 0.192-1.92 2.048-4.352 3.456-7.136 4.288-0.608 0.192-1.152 0.256-1.792 0.352-0.928 0.16-1.792 0.544-2.752 0.544h-448c-26.464 0-48-21.536-48-48v-928c0-26.464 21.536-48 48-48zM512 901.92l204.384-229.92h-188.384c-7.040 0-16 13.44-16 24v205.92zM32 912c0 8.832 7.2 16 16 16h432v-232c0-25.888 20.96-56 48-56h208v-656c0-8.832-7.2-16-16-16h-672c-8.96 0-16 7.040-16 16v928zM176 512h416c8.832 0 16 7.168 16 16s-7.168 16-16 16h-416c-8.832 0-16-7.168-16-16s7.168-16 16-16zM176 384h416c8.832 0 16 7.168 16 16s-7.168 16-16 16h-416c-8.832 0-16-7.168-16-16s7.168-16 16-16zM176 640h192c8.832 0 16 7.168 16 16s-7.168 16-16 16h-192c-8.832 0-16-7.168-16-16s7.168-16 16-16zM176 256h416c8.832 0 16 7.168 16 16s-7.168 16-16 16h-416c-8.832 0-16-7.168-16-16s7.168-16 16-16zM176 128h416c8.832 0 16 7.168 16 16s-7.168 16-16 16h-416c-8.832 0-16-7.168-16-16s7.168-16 16-16z" horiz-adv-x="768" />
<glyph unicode="&#xe00c;" d="M48.384 64h575.616c26.464 0 48 21.536 48 48v608c0 0.736-0.32 1.376-0.416 2.080s-0.224 1.312-0.416 1.984c-0.736 2.752-1.92 5.312-3.904 7.264l-223.968 223.968c-1.952 1.952-4.512 3.136-7.264 3.904-0.672 0.192-1.28 0.32-1.984 0.416-0.672 0.064-1.312 0.384-2.048 0.384h-383.808c-26.56 0-48.192-21.536-48.192-48v-800c0-26.464 21.696-48 48.384-48zM448 905.376l169.376-169.376h-153.376c-8.8 0-16 7.168-16 16v153.376zM32 912c0 8.832 7.264 16 16.192 16h367.808v-176c0-26.464 21.536-48 48-48h176v-592c0-8.832-7.2-16-16-16h-575.616c-9.056 0-16.384 7.168-16.384 16v800zM144 576h384c8.832 0 16 7.168 16 16s-7.168 16-16 16h-384c-8.832 0-16-7.168-16-16s7.168-16 16-16zM144 448h384c8.832 0 16 7.168 16 16s-7.168 16-16 16h-384c-8.832 0-16-7.168-16-16s7.168-16 16-16zM144 704h160c8.832 0 16 7.168 16 16s-7.168 16-16 16h-160c-8.832 0-16-7.168-16-16s7.168-16 16-16zM144 320h384c8.832 0 16 7.168 16 16s-7.168 16-16 16h-384c-8.832 0-16-7.168-16-16s7.168-16 16-16zM144 192h384c8.832 0 16 7.168 16 16s-7.168 16-16 16h-384c-8.832 0-16-7.168-16-16s7.168-16 16-16zM688 800h144v-176c0-26.464 21.536-48 48-48h176v-592c0-8.832-7.2-16-16-16h-575.616c-9.056 0-16.384 7.168-16.384 16v32c0 8.832-7.168 16-16 16s-16-7.168-16-16v-32c0-26.464 21.696-48 48.384-48h575.616c26.464 0 48 21.536 48 48v608c0 0.736-0.32 1.376-0.416 2.080s-0.224 1.312-0.416 1.984c-0.736 2.752-1.92 5.312-3.904 7.264l-223.968 223.968c-1.952 1.984-4.544 3.168-7.296 3.904-0.672 0.192-1.248 0.288-1.952 0.384-0.672 0.096-1.312 0.416-2.048 0.416h-160c-8.832 0-16-7.168-16-16s7.168-16 16-16zM880 608c-8.8 0-16 7.168-16 16v153.376l169.376-169.376h-153.376zM752 448h192c8.832 0 16 7.168 16 16s-7.168 16-16 16h-192c-8.832 0-16-7.168-16-16s7.168-16 16-16zM752 320h192c8.832 0 16 7.168 16 16s-7.168 16-16 16h-192c-8.832 0-16-7.168-16-16s7.168-16 16-16zM752 192h192c8.832 0 16 7.168 16 16s-7.168 16-16 16h-192c-8.832 0-16-7.168-16-16s7.168-16 16-16zM752 64h192c8.832 0 16 7.168 16 16s-7.168 16-16 16h-192c-8.832 0-16-7.168-16-16s7.168-16 16-16z" horiz-adv-x="1088" />
<glyph unicode="&#xe00d;" d="M48-64h672c26.464 0 48 21.536 48 48v240c0 0.32-0.16 0.576-0.192 0.896 1.76 1.12 3.584 2.176 5.312 3.36l255.552-255.552c3.136-3.136 7.232-4.704 11.328-4.704s8.192 1.568 11.328 4.672c6.24 6.24 6.24 16.384 0 22.624l-253.216 253.216c40.448 37.984 65.888 91.776 65.888 151.488 0 73.504-38.432 138.112-96.192 175.104 0.032 0.32 0.192 0.576 0.192 0.896v80c0 0.544-0.256 0.992-0.288 1.504-0.064 0.736-0.256 1.376-0.416 2.080-0.544 2.272-1.472 4.32-2.88 6.112-0.224 0.288-0.192 0.64-0.416 0.928l-256 288c-0.096 0.096-0.224 0.096-0.32 0.192-1.92 2.080-4.384 3.456-7.136 4.288-0.608 0.192-1.152 0.256-1.792 0.352-0.928 0.16-1.792 0.544-2.752 0.544h-448c-26.464 0-48-21.536-48-48v-928c0-26.464 21.536-48 48-48zM832 400c0-97.056-78.976-176-176-176s-176 78.944-176 176 78.976 176 176 176 176-78.944 176-176zM512 901.92l204.384-229.92h-188.384c-7.040 0-16 13.44-16 24v205.92zM32 912c0 8.832 7.2 16 16 16h432v-232c0-25.888 20.96-56 48-56h208v-48.032c-24.64 10.304-51.648 16.032-80 16.032-58.816 0-111.872-24.64-149.728-64h-330.272c-8.832 0-16-7.168-16-16s7.168-16 16-16h305.024c-18.080-28.128-29.504-60.832-32.192-96h-272.832c-8.832 0-16-7.168-16-16s7.168-16 16-16h272.8c2.688-35.168 14.144-67.872 32.192-96h-304.992c-8.832 0-16-7.168-16-16s7.168-16 16-16h328c0.672 0 1.248 0.288 1.92 0.384 37.888-39.584 91.104-64.384 150.080-64.384 28.352 0 55.36 5.728 80 16.064v-224.064c0-8.832-7.2-16-16-16h-672c-8.96 0-16 7.040-16 16v928zM176 640h192c8.832 0 16 7.168 16 16s-7.168 16-16 16h-192c-8.832 0-16-7.168-16-16s7.168-16 16-16zM176 128h416c8.832 0 16 7.168 16 16s-7.168 16-16 16h-416c-8.832 0-16-7.168-16-16s7.168-16 16-16z" horiz-adv-x="1056" />
<glyph unicode="&#xe00e;" d="M48-64h800c27.808 0 48 20.192 48 48v896c0 27.808-20.192 48-48 48h-128c-8.832 0-16-7.168-16-16s7.168-16 16-16h128c10.016 0 16-5.984 16-16v-896c0-10.016-5.984-16-16-16h-800c-10.016 0-16 5.984-16 16v896c0 10.016 5.984 16 16 16h128c8.832 0 16 7.168 16 16s-7.168 16-16 16h-128c-27.808 0-48-20.192-48-48v-896c0-27.808 20.192-48 48-48zM176 800c8.832 0 16 7.168 16 16s-7.168 16-16 16h-64c-8.832 0-16-7.168-16-16v-768c0-8.832 7.168-16 16-16h672c8.832 0 16 7.168 16 16v768c0 8.832-7.168 16-16 16h-64c-8.832 0-16-7.168-16-16s7.168-16 16-16h48v-736h-640v736h48zM288 736h320c38.88 0 64 25.12 64 64v144c0 8.832-7.168 16-16 16h-416c-8.832 0-16-7.168-16-16v-144c0-38.88 25.12-64 64-64zM256 928h384v-128c0-21.248-10.784-32-32-32h-320c-21.216 0-32 10.752-32 32v128zM272 448h352c8.832 0 16 7.168 16 16s-7.168 16-16 16h-352c-8.832 0-16-7.168-16-16s7.168-16 16-16zM272 576h352c8.832 0 16 7.168 16 16s-7.168 16-16 16h-352c-8.832 0-16-7.168-16-16s7.168-16 16-16zM272 320h352c8.832 0 16 7.168 16 16s-7.168 16-16 16h-352c-8.832 0-16-7.168-16-16s7.168-16 16-16zM272 192h352c8.832 0 16 7.168 16 16s-7.168 16-16 16h-352c-8.832 0-16-7.168-16-16s7.168-16 16-16z" horiz-adv-x="896" />
<glyph unicode="&#xe00f;" d="M1184 32c38.272 0 64 25.728 64 64v848c0 8.832-7.168 16-16 16s-16-7.168-16-16v-848c0-27.84-20.064-32-32-32-3.296 0-32 0.896-32 32v848c0 8.832-7.168 16-16 16s-16-7.168-16-16v-848c0-42.016 32.192-64 64-64zM144 288h320c8.832 0 16 7.168 16 16v288c0 8.832-7.168 16-16 16h-320c-8.832 0-16-7.168-16-16v-288c0-8.832 7.168-16 16-16zM160 576h288v-256h-288v256zM144 704h768c8.832 0 16 7.168 16 16v128c0 8.832-7.168 16-16 16h-768c-8.832 0-16-7.168-16-16v-128c0-8.832 7.168-16 16-16zM160 832h736v-96h-736v96zM912 608h-320c-8.832 0-16-7.168-16-16s7.168-16 16-16h320c8.832 0 16 7.168 16 16s-7.168 16-16 16zM912 512h-320c-8.832 0-16-7.168-16-16s7.168-16 16-16h320c8.832 0 16 7.168 16 16s-7.168 16-16 16zM912 416h-320c-8.832 0-16-7.168-16-16s7.168-16 16-16h320c8.832 0 16 7.168 16 16s-7.168 16-16 16zM912 320h-320c-8.832 0-16-7.168-16-16s7.168-16 16-16h320c8.832 0 16 7.168 16 16s-7.168 16-16 16zM912 224h-320c-8.832 0-16-7.168-16-16s7.168-16 16-16h320c8.832 0 16 7.168 16 16s-7.168 16-16 16zM144 192h320c8.832 0 16 7.168 16 16s-7.168 16-16 16h-320c-8.832 0-16-7.168-16-16s7.168-16 16-16zM912 128h-320c-8.832 0-16-7.168-16-16s7.168-16 16-16h320c8.832 0 16 7.168 16 16s-7.168 16-16 16zM144 96h320c8.832 0 16 7.168 16 16s-7.168 16-16 16h-320c-8.832 0-16-7.168-16-16s7.168-16 16-16zM160-62.304h1024c0.256 0 0.512 0 0.64 0 0.224 0 0.416 0.128 0.64 0.128 86.688 0.704 157.056 71.328 157.056 158.176v848c0 7.904-6.4 14.304-14.304 14.304s-14.304-6.4-14.304-14.304v-848c0-71.52-58.176-129.696-129.696-129.696s-129.728 58.176-129.728 129.696v848c0 7.904-6.4 14.304-14.304 14.304h-1024c-7.904 0-14.304-6.4-14.304-14.304v-848c0-87.296 71.008-158.304 158.304-158.304zM30.304 929.696h995.36v-833.696c0-9.792 1.184-19.296 2.88-28.64 0.352-1.856 0.64-3.712 1.056-5.536 1.984-8.896 4.608-17.504 8.032-25.792 0.608-1.504 1.344-2.912 2.016-4.384 3.456-7.744 7.456-15.2 12.096-22.24 0.544-0.8 0.96-1.664 1.504-2.464 5.056-7.36 10.816-14.176 16.992-20.576 1.344-1.376 2.656-2.72 4.064-4.064 5.952-5.76 12.224-11.232 19.008-16h-933.312c-71.488 0-129.696 58.176-129.696 129.696v833.696z" horiz-adv-x="1344" />
<glyph unicode="&#xe010;" d="M752-64c27.808 0 48 20.192 48 48v896c0 27.808-20.192 48-48 48h-640c-27.808 0-48-20.192-48-48v-37.344c0-8.832 7.168-16 16-16s16 7.168 16 16v37.344c0 10.016 5.984 16 16 16h145.984v-928h-145.984c-10.016 0-16 5.984-16 16v29.344c0 8.832-7.168 16-16 16s-16-7.168-16-16v-29.344c0-27.808 20.192-48 48-48h640zM288 896h464c10.016 0 16-5.984 16-16v-896c0-10.016-5.984-16-16-16h-464v928zM864 16v832c0 8.832-7.168 16-16 16s-16-7.168-16-16v-832c0-8.832 7.168-16 16-16s16 7.168 16 16zM16 608h128c8.832 0 16 7.168 16 16s-7.168 16-16 16h-128c-8.832 0-16-7.168-16-16s7.168-16 16-16zM16 736h128c8.832 0 16 7.168 16 16s-7.168 16-16 16h-128c-8.832 0-16-7.168-16-16s7.168-16 16-16zM16 480h128c8.832 0 16 7.168 16 16s-7.168 16-16 16h-128c-8.832 0-16-7.168-16-16s7.168-16 16-16zM16 224h128c8.832 0 16 7.168 16 16s-7.168 16-16 16h-128c-8.832 0-16-7.168-16-16s7.168-16 16-16zM16 352h128c8.832 0 16 7.168 16 16s-7.168 16-16 16h-128c-8.832 0-16-7.168-16-16s7.168-16 16-16zM16 96h128c8.832 0 16 7.168 16 16s-7.168 16-16 16h-128c-8.832 0-16-7.168-16-16s7.168-16 16-16z" horiz-adv-x="864" />
<glyph unicode="&#xe011;" d="M1200 928h-512c-12.704 0-23.68-4.352-32-11.584-8.32 7.232-19.296 11.584-32 11.584h-512c-27.808 0-48-20.192-48-48v-896c0-27.808 20.192-48 48-48h512c12.704 0 23.68 4.352 32 11.584 8.32-7.232 19.296-11.584 32-11.584h512c27.808 0 48 20.192 48 48v896c0 27.808-20.192 48-48 48zM624-32h-512c-10.016 0-16 5.984-16 16v896c0 10.016 5.984 16 16 16h512c10.016 0 16-5.984 16-16v-896c0-10.016-5.984-16-16-16zM1216-16c0-10.016-5.984-16-16-16h-512c-10.016 0-16 5.984-16 16v896c0 10.016 5.984 16 16 16h512c10.016 0 16-5.984 16-16v-896zM1296 864c-8.832 0-16-7.168-16-16v-832c0-8.832 7.168-16 16-16s16 7.168 16 16v832c0 8.832-7.168 16-16 16zM16 0c8.832 0 16 7.168 16 16v832c0 8.832-7.168 16-16 16s-16-7.168-16-16v-832c0-8.832 7.168-16 16-16zM560 640h-384c-8.832 0-16-7.168-16-16s7.168-16 16-16h384c8.832 0 16 7.168 16 16s-7.168 16-16 16zM560 512h-384c-8.832 0-16-7.168-16-16s7.168-16 16-16h384c8.832 0 16 7.168 16 16s-7.168 16-16 16zM560 768h-384c-8.832 0-16-7.168-16-16s7.168-16 16-16h384c8.832 0 16 7.168 16 16s-7.168 16-16 16zM560 384h-384c-8.832 0-16-7.168-16-16s7.168-16 16-16h384c8.832 0 16 7.168 16 16s-7.168 16-16 16zM560 256h-384c-8.832 0-16-7.168-16-16s7.168-16 16-16h384c8.832 0 16 7.168 16 16s-7.168 16-16 16zM560 128h-384c-8.832 0-16-7.168-16-16s7.168-16 16-16h384c8.832 0 16 7.168 16 16s-7.168 16-16 16zM1136 640h-384c-8.832 0-16-7.168-16-16s7.168-16 16-16h384c8.832 0 16 7.168 16 16s-7.168 16-16 16zM1136 512h-384c-8.832 0-16-7.168-16-16s7.168-16 16-16h384c8.832 0 16 7.168 16 16s-7.168 16-16 16zM1136 768h-384c-8.832 0-16-7.168-16-16s7.168-16 16-16h384c8.832 0 16 7.168 16 16s-7.168 16-16 16zM1136 384h-384c-8.832 0-16-7.168-16-16s7.168-16 16-16h384c8.832 0 16 7.168 16 16s-7.168 16-16 16zM1136 256h-384c-8.832 0-16-7.168-16-16s7.168-16 16-16h384c8.832 0 16 7.168 16 16s-7.168 16-16 16zM1136 128h-384c-8.832 0-16-7.168-16-16s7.168-16 16-16h384c8.832 0 16 7.168 16 16s-7.168 16-16 16z" horiz-adv-x="1344" />
<glyph unicode="&#xe012;" d="M1328 640c-8.832 0-16-7.168-16-16v-640c0-8.832-7.168-16-16-16h-1248c-8.832 0-16 7.168-16 16v640c0 8.832-7.168 16-16 16s-16-7.168-16-16v-640c0-26.464 21.536-48 48-48h1248c26.464 0 48 21.536 48 48v640c0 8.832-7.168 16-16 16zM1296 960h-1248c-26.464 0-48-21.536-48-48v-192c0-8.832 7.168-16 16-16h1312c8.832 0 16 7.168 16 16v192c0 26.464-21.536 48-48 48zM1312 736h-1280v176c0 8.832 7.168 16 16 16h1248c8.832 0 16-7.168 16-16v-176zM560 64c8.832 0 16 7.168 16 16v512c0 8.832-7.168 16-16 16h-416c-8.832 0-16-7.168-16-16v-512c0-8.832 7.168-16 16-16h416zM160 576h384v-480h-384v480zM720 480h480c8.832 0 16 7.168 16 16s-7.168 16-16 16h-480c-8.832 0-16-7.168-16-16s7.168-16 16-16zM720 320h480c8.832 0 16 7.168 16 16s-7.168 16-16 16h-480c-8.832 0-16-7.168-16-16s7.168-16 16-16zM720 160h480c8.832 0 16 7.168 16 16s-7.168 16-16 16h-480c-8.832 0-16-7.168-16-16s7.168-16 16-16zM96 832c0-17.673 14.327-32 32-32s32 14.327 32 32c0 17.673-14.327 32-32 32s-32-14.327-32-32zM224 832c0-17.673 14.327-32 32-32s32 14.327 32 32c0 17.673-14.327 32-32 32s-32-14.327-32-32zM352 832c0-17.673 14.327-32 32-32s32 14.327 32 32c0 17.673-14.327 32-32 32s-32-14.327-32-32z" horiz-adv-x="1344" />
<glyph unicode="&#xe013;" d="M1088-16v608c0 8.832-7.168 16-16 16s-16-7.168-16-16v-608c0-8.832-7.168-16-16-16h-992c-8.832 0-16 7.168-16 16v608c0 8.832-7.168 16-16 16s-16-7.168-16-16v-608c0-26.464 21.536-48 48-48h992c26.464 0 48 21.536 48 48zM144 224c-8.832 0-16-7.168-16-16s7.168-16 16-16h48v-112c0-8.832 7.168-16 16-16s16 7.168 16 16v112h192v-112c0-8.832 7.168-16 16-16s16 7.168 16 16v112h192v-112c0-8.832 7.168-16 16-16s16 7.168 16 16v112h192v-112c0-8.832 7.168-16 16-16s16 7.168 16 16v112h48c8.832 0 16 7.168 16 16s-7.168 16-16 16h-48v160h48c8.832 0 16 7.168 16 16s-7.168 16-16 16h-48v144c0 8.832-7.168 16-16 16s-16-7.168-16-16v-144h-192v144c0 8.832-7.168 16-16 16s-16-7.168-16-16v-144h-192v144c0 8.832-7.168 16-16 16s-16-7.168-16-16v-144h-192v144c0 8.832-7.168 16-16 16s-16-7.168-16-16v-144h-48c-8.832 0-16-7.168-16-16s7.168-16 16-16h48v-160h-48zM864 384v-160h-192v160h192zM640 384v-160h-192v160h192zM224 384h192v-160h-192v160zM912 864h136c2.784 0 8 0 8-16v-144h-1024v144c0 8.832 7.168 16 16 16h128c8.832 0 16 7.168 16 16s-7.168 16-16 16h-128c-26.464 0-48-21.536-48-48v-160c0-8.832 7.168-16 16-16h1056c8.832 0 16 7.168 16 16v160c0 35.392-20.672 48-40 48h-136c-8.832 0-16-7.168-16-16s7.168-16 16-16zM720 864c8.832 0 16 7.168 16 16s-7.168 16-16 16h-352c-8.832 0-16-7.168-16-16s7.168-16 16-16h352zM288 816v128c0 8.832-7.168 16-16 16s-16-7.168-16-16v-128c0-8.832 7.168-16 16-16s16 7.168 16 16zM816 800c8.832 0 16 7.168 16 16v128c0 8.832-7.168 16-16 16s-16-7.168-16-16v-128c0-8.832 7.168-16 16-16z" horiz-adv-x="1088" />
<glyph unicode="&#xe014;" d="M16 864c-8.832 0-16-7.168-16-16v-544c0-26.464 21.536-48 48-48h896c26.464 0 48 21.536 48 48v544c0 8.832-7.168 16-16 16s-16-7.168-16-16v-544c0-8.832-7.168-16-16-16h-896c-8.832 0-16 7.168-16 16v544c0 8.832-7.168 16-16 16zM1040 960h-1088c-8.832 0-16-7.168-16-16s7.168-16 16-16h1088c8.832 0 16 7.168 16 16s-7.168 16-16 16zM379.328 699.328c-5.856 5.856-15.2 6.272-21.568 0.992l-192-160c-6.784-5.664-7.712-15.744-2.048-22.56 5.664-6.784 15.712-7.712 22.56-2.048l180.768 150.656 181.664-181.664c3.104-3.136 7.2-4.704 11.296-4.704s8.192 1.568 11.328 4.672l228.672 228.704v-121.376c0-8.832 7.168-16 16-16s16 7.168 16 16v160c0 2.080-0.416 4.16-1.216 6.112-1.632 3.904-4.736 7.040-8.672 8.672-1.952 0.8-4.032 1.216-6.112 1.216h-160c-8.832 0-16-7.168-16-16s7.168-16 16-16h121.376l-217.376-217.376-180.672 180.704zM257.824-55.424c4.096-7.84 13.76-10.848 21.6-6.752l216.576 113.44 216.576-113.44c2.368-1.248 4.896-1.824 7.424-1.824 5.76 0 11.328 3.136 14.176 8.576 4.096 7.84 1.088 17.504-6.752 21.6l-220.576 115.52c3.136 2.912 5.152 7.008 5.152 11.648v82.656c0 8.832-7.168 16-16 16s-16-7.168-16-16v-82.656c0-4.608 2.016-8.704 5.152-11.616l-220.576-115.52c-7.84-4.128-10.848-13.792-6.752-21.632z" horiz-adv-x="992" />
<glyph unicode="&#xe015;" d="M48-64h928c26.464 0 48 21.536 48 48v928c0 26.464-21.536 48-48 48h-928c-26.464 0-48-21.536-48-48v-928c0-26.464 21.536-48 48-48zM32 912c0 8.832 7.2 16 16 16h928c8.8 0 16-7.168 16-16v-928c0-8.832-7.2-16-16-16h-928c-8.8 0-16 7.168-16 16v928zM656 560c35.296 0 64 28.704 64 64s-28.704 64-64 64-64-28.704-64-64 28.704-64 64-64zM656 656c17.664 0 32-14.368 32-32s-14.336-32-32-32-32 14.368-32 32 14.336 32 32 32zM144 160h736c8.832 0 16 7.168 16 16v640c0 8.832-7.168 16-16 16h-736c-8.832 0-16-7.168-16-16v-640c0-8.832 7.168-16 16-16zM160 192v180.416c0.704 0.512 1.504 0.8 2.144 1.44l163.712 163.712c8.32 8.32 22.784 8.288 31.104 0l240.672-240.672c3.136-3.136 7.232-4.672 11.328-4.672 3.968 0 7.936 1.472 11.040 4.416l123.712 117.504c4.16 4.16 9.696 6.464 15.552 6.464 5.888 0 11.36-2.304 15.072-5.984l89.664-97.664c0 0 0.032 0 0.032-0.032v-124.928h-704.032zM864 800v-435.776l-66.592 72.512c-10.144 10.208-23.712 15.84-38.112 15.84-0.032 0-0.032 0-0.032 0-14.432 0-28-5.632-37.92-15.552l-112.128-106.496-229.632 229.664c-20.448 20.416-55.968 20.384-76.352 0l-143.232-143.264v383.072h704z" />
<glyph unicode="&#xe016;" d="M48 64h832c26.464 0 48 21.536 48 48v800c0 26.464-21.536 48-48 48h-832c-26.464 0-48-21.536-48-48v-800c0-26.464 21.536-48 48-48zM32 912c0 8.832 7.2 16 16 16h832c8.8 0 16-7.168 16-16v-800c0-8.832-7.2-16-16-16h-832c-8.8 0-16 7.168-16 16v800zM576 608c35.296 0 64 28.704 64 64s-28.704 64-64 64-64-28.704-64-64 28.704-64 64-64zM576 704c17.664 0 32-14.368 32-32s-14.336-32-32-32-32 14.368-32 32 14.336 32 32 32zM112 224h704c8.832 0 16 7.168 16 16v608c0 8.832-7.168 16-16 16h-704c-8.832 0-16-7.168-16-16v-608c0-8.832 7.168-16 16-16zM128 256v148.416c0.704 0.512 1.504 0.8 2.144 1.44l163.712 163.712c8.32 8.32 22.784 8.288 31.104 0l240.672-240.672c3.136-3.136 7.232-4.672 11.328-4.672 3.968 0 7.936 1.472 11.040 4.416l123.712 117.504c4.16 4.16 9.696 6.464 15.552 6.464 5.888 0 11.36-2.304 14.848-5.696l57.888-65.888v-125.024h-672zM800 832v-402.592l-34.592 39.296c-10.144 10.208-23.712 15.84-38.112 15.84-0.032 0-0.032 0-0.032 0-14.432 0-28-5.632-37.92-15.552l-112.128-106.496-229.632 229.664c-20.448 20.416-55.968 20.384-76.352 0l-143.232-143.232v383.072h672zM144 29.344c-8.832 0-16-7.168-16-16v-29.344c0-26.464 21.536-48 48-48h832c26.464 0 48 21.536 48 48v832c0 26.464-21.536 48-48 48h-29.344c-8.832 0-16-7.168-16-16s7.168-16 16-16h29.344c8.8 0 16-7.168 16-16v-832c0-8.832-7.2-16-16-16h-832c-8.8 0-16 7.168-16 16v29.344c0 8.832-7.168 16-16 16z" horiz-adv-x="1056" />
<glyph unicode="&#xe017;" d="M240 960h-192c-27.808 0-48-20.192-48-48v-928c0-27.808 20.192-48 48-48h1088c27.808 0 48 20.192 48 48v928c0 27.808-20.192 48-48 48h-896zM32-16v928c0 10.016 5.984 16 16 16h176v-960h-176c-10.016 0-16 5.984-16 16zM256-32v960h672v-960h-672zM1152 912v-928c0-10.016-5.984-16-16-16h-176v960h176c10.016 0 16-5.984 16-16zM472.864 637.312c-4.896 3.264-11.232 3.584-16.448 0.8-5.152-2.784-8.416-8.192-8.416-14.112v-384c0-5.92 3.264-11.328 8.448-14.112 2.368-1.248 4.96-1.888 7.552-1.888 3.104 0 6.176 0.896 8.864 2.688l288 192c4.448 2.976 7.136 7.968 7.136 13.312s-2.688 10.336-7.136 13.312l-288 192zM480 269.888v324.224l243.168-162.112-243.168-162.112zM160 704h-64c-8.832 0-16-7.168-16-16s7.168-16 16-16h64c8.832 0 16 7.168 16 16s-7.168 16-16 16zM96 800h64c8.832 0 16 7.168 16 16s-7.168 16-16 16h-64c-8.832 0-16-7.168-16-16s7.168-16 16-16zM160 576h-64c-8.832 0-16-7.168-16-16s7.168-16 16-16h64c8.832 0 16 7.168 16 16s-7.168 16-16 16zM160 448h-64c-8.832 0-16-7.168-16-16s7.168-16 16-16h64c8.832 0 16 7.168 16 16s-7.168 16-16 16zM160 320h-64c-8.832 0-16-7.168-16-16s7.168-16 16-16h64c8.832 0 16 7.168 16 16s-7.168 16-16 16zM160 192h-64c-8.832 0-16-7.168-16-16s7.168-16 16-16h64c8.832 0 16 7.168 16 16s-7.168 16-16 16zM160 64h-64c-8.832 0-16-7.168-16-16s7.168-16 16-16h64c8.832 0 16 7.168 16 16s-7.168 16-16 16zM1024 672h64c8.832 0 16 7.168 16 16s-7.168 16-16 16h-64c-8.832 0-16-7.168-16-16s7.168-16 16-16zM1024 800h64c8.832 0 16 7.168 16 16s-7.168 16-16 16h-64c-8.832 0-16-7.168-16-16s7.168-16 16-16zM1024 544h64c8.832 0 16 7.168 16 16s-7.168 16-16 16h-64c-8.832 0-16-7.168-16-16s7.168-16 16-16zM1024 416h64c8.832 0 16 7.168 16 16s-7.168 16-16 16h-64c-8.832 0-16-7.168-16-16s7.168-16 16-16zM1024 288h64c8.832 0 16 7.168 16 16s-7.168 16-16 16h-64c-8.832 0-16-7.168-16-16s7.168-16 16-16zM1024 160h64c8.832 0 16 7.168 16 16s-7.168 16-16 16h-64c-8.832 0-16-7.168-16-16s7.168-16 16-16zM1088 64h-64c-8.832 0-16-7.168-16-16s7.168-16 16-16h64c8.832 0 16 7.168 16 16s-7.168 16-16 16z" horiz-adv-x="1184" />
<glyph unicode="&#xe018;" d="M1264 768h-240c-61.664 0-63.936 57.504-64 64v32c0 40.256-44.48 96-128 96h-319.008c-93.92 0-128-57.408-128-96v-31.808c-0.032-2.624-1.536-64.192-64.992-64.192h-240c-44.128 0-80-35.904-80-80v-576c0-44.096 35.872-80 80-80h192c8.832 0 16 7.168 16 16s-7.168 16-16 16h-192c-26.464 0-48 21.536-48 48v400h256c-20.608-49.28-32-103.328-32-160 0-229.376 186.624-416 416-416s416 186.624 416 416c0 56.672-11.488 110.72-32.096 160h256.096v-400c0-26.464-21.536-48-48-48h-224c-8.832 0-16-7.168-16-16s7.168-16 16-16h224c44.128 0 80 35.904 80 80v576c0 44.096-35.872 80-80 80zM672-32c-211.744 0-384 172.256-384 384s172.256 384 384 384 384-172.256 384-384-172.256-384-384-384zM1048 544c-2.368 0-4.576-0.576-6.592-1.504-69.248 133.728-208.704 225.504-369.408 225.504s-300.16-91.776-369.408-225.504c-2.016 0.928-4.224 1.504-6.592 1.504h-264v144c0 26.464 21.536 48 48 48h240c75.776 0 96.608 62.656 96.992 96v32c0 25.728 25.568 64 96 64h319.008c67.008 0 96-42.368 96-64v-32c0-33.216 20.064-96 96-96h240c26.464 0 48-21.536 48-48v-144h-264zM304 800c8.832 0 16 7.168 16 16v32c0 26.464-21.536 48-48 48h-128c-26.464 0-48-21.536-48-48v-32c0-8.832 7.168-16 16-16s16 7.168 16 16v32c0 8.832 7.2 16 16 16h128c8.8 0 16-7.168 16-16v-32c0-8.832 7.168-16 16-16zM672 640c-158.816 0-288-129.216-288-288s129.184-288 288-288 288 129.216 288 288-129.184 288-288 288zM672 96c-141.152 0-256 114.848-256 256s114.848 256 256 256 256-114.848 256-256-114.848-256-256-256z" horiz-adv-x="1344" />
<glyph unicode="&#xe019;" d="M1296 640h-80v112c0 26.464-21.536 48-48 48h-64c-8.832 0-16-7.168-16-16s7.168-16 16-16h64c8.8 0 16-7.168 16-16v-112h-128v304c0 8.832-7.168 16-16 16h-736c-8.832 0-16-7.168-16-16v-304h-128v112c0 8.832 7.2 16 16 16h64c8.832 0 16 7.168 16 16s-7.168 16-16 16h-64c-26.464 0-48-21.536-48-48v-112h-80c-26.464 0-48-21.536-48-48v-448c0-26.464 21.536-48 48-48h192c8.832 0 16 7.168 16 16s-7.168 16-16 16h-192c-8.8 0-16 7.168-16 16v112h1280v-112c0-8.832-7.2-16-16-16h-192c-8.832 0-16-7.168-16-16s7.168-16 16-16h192c26.464 0 48 21.536 48 48v448c0 26.464-21.536 48-48 48zM320 928h704v-288h-704v288zM32 288v304c0 8.832 7.2 16 16 16h1248c8.8 0 16-7.168 16-16v-304h-1280zM1040 224c-8.832 0-16-7.168-16-16v-240h-704v240c0 8.832-7.168 16-16 16s-16-7.168-16-16v-256c0-8.832 7.168-16 16-16h736c8.832 0 16 7.168 16 16v256c0 8.832-7.168 16-16 16zM1184 384c0-17.673 14.327-32 32-32s32 14.327 32 32c0 17.673-14.327 32-32 32s-32-14.327-32-32zM1056 384c0-17.673 14.327-32 32-32s32 14.327 32 32c0 17.673-14.327 32-32 32s-32-14.327-32-32z" horiz-adv-x="1344" />
</font>
</defs>
</svg>
